<svg width="15" height="16" viewBox="0 0 15 16" fill="none" xmlns="http://www.w3.org/2000/svg">
<path d="M7.21522 9.19788C9.42571 9.19788 11.2191 7.25615 11.2191 4.86285C11.2191 2.46956 9.42571 0.527832 7.21522 0.527832C5.00473 0.527832 3.21132 2.46956 3.21132 4.86285C3.21132 7.25615 5.00473 9.19788 7.21522 9.19788ZM10.7743 10.1612H9.2422C8.62493 10.4683 7.93815 10.6429 7.21522 10.6429C6.4923 10.6429 5.8083 10.4683 5.18825 10.1612H3.6562C1.69039 10.1612 0.097168 11.8862 0.097168 14.0146V14.4962C0.097168 15.294 0.694973 15.9412 1.4318 15.9412H12.9986C13.7355 15.9412 14.3333 15.294 14.3333 14.4962V14.0146C14.3333 11.8862 12.7401 10.1612 10.7743 10.1612Z" fill="black"/>
</svg>
