<svg width="35" height="35" viewBox="0 0 35 35" fill="none" xmlns="http://www.w3.org/2000/svg">
<path fill-rule="evenodd" clip-rule="evenodd" d="M29.5227 9.65376C32.1885 9.65376 34.3496 7.49269 34.3496 4.82688C34.3496 2.16107 32.1885 0 29.5227 0C26.8569 0 24.6958 2.16107 24.6958 4.82688C24.6958 7.49269 26.8569 9.65376 29.5227 9.65376Z" fill="white"/>
<path fill-rule="evenodd" clip-rule="evenodd" d="M29.5227 21.7767C32.1885 21.7767 34.3496 19.6157 34.3496 16.9499C34.3496 14.2842 32.1885 12.1232 29.5227 12.1232C26.8569 12.1232 24.6958 14.2842 24.6958 16.9499C24.6958 19.6157 26.8569 21.7767 29.5227 21.7767Z" fill="white"/>
<path fill-rule="evenodd" clip-rule="evenodd" d="M29.5227 34.3493C32.1885 34.3493 34.3496 32.1882 34.3496 29.5224C34.3496 26.8566 32.1885 24.6955 29.5227 24.6955C26.8569 24.6955 24.6958 26.8566 24.6958 29.5224C24.6958 32.1882 26.8569 34.3493 29.5227 34.3493Z" fill="white"/>
<path fill-rule="evenodd" clip-rule="evenodd" d="M16.9508 21.7767C19.6165 21.7767 21.7775 19.6157 21.7775 16.95C21.7775 14.2843 19.6165 12.1233 16.9508 12.1233C14.285 12.1233 12.124 14.2843 12.124 16.95C12.124 19.6157 14.285 21.7767 16.9508 21.7767Z" fill="white"/>
<path fill-rule="evenodd" clip-rule="evenodd" d="M16.9503 34.3493C19.616 34.3493 21.777 32.1883 21.777 29.5225C21.777 26.8567 19.616 24.6956 16.9503 24.6956C14.2845 24.6956 12.1235 26.8567 12.1235 29.5225C12.1235 32.1883 14.2845 34.3493 16.9503 34.3493Z" fill="white"/>
<path fill-rule="evenodd" clip-rule="evenodd" d="M4.82688 34.3493C7.49269 34.3493 9.65376 32.1882 9.65376 29.5224C9.65376 26.8566 7.49269 24.6955 4.82688 24.6955C2.16107 24.6955 0 26.8566 0 29.5224C0 32.1882 2.16107 34.3493 4.82688 34.3493Z" fill="white"/>
</svg>
