<svg width="20" height="22" viewBox="0 0 20 22" fill="none" xmlns="http://www.w3.org/2000/svg">
<path d="M9.90314 12.0733C12.9079 12.0736 15.3461 9.43443 15.3464 6.18113C15.3468 2.92783 12.9092 0.288109 9.90437 0.287796C6.89956 0.287483 4.46143 2.9267 4.46109 6.18C4.46075 9.4333 6.89834 12.073 9.90314 12.0733ZM14.7409 13.3833L12.6584 13.3831C11.8192 13.8004 10.8856 14.0377 9.90294 14.0376C8.92023 14.0375 7.99047 13.8 7.14766 13.3825L5.06508 13.3823C2.39288 13.3821 0.226908 15.7267 0.226607 18.6198L0.226539 19.2746C0.226426 20.359 1.03895 21.2389 2.04056 21.239L17.7638 21.2407C18.7654 21.2408 19.5781 20.361 19.5782 19.2766L19.5783 18.6219C19.5786 15.7287 17.4131 13.3836 14.7409 13.3833Z" fill="black"/>
</svg>
