<svg width="24" height="24" viewBox="0 0 24 24" fill="none" xmlns="http://www.w3.org/2000/svg">
<g clip-path="url(#clip0_195_3638)">
<path d="M20.53 0.590088H4.42998C2.5246 0.590088 0.97998 2.13471 0.97998 4.04009V20.1401C0.97998 22.0455 2.5246 23.5901 4.42998 23.5901H20.53C22.4354 23.5901 23.98 22.0455 23.98 20.1401V4.04009C23.98 2.13471 22.4354 0.590088 20.53 0.590088Z" fill="white"/>
<path d="M18.3198 18.5588C20.3413 16.6721 21.2397 13.5276 20.7007 10.5178H12.6597V13.842H17.2417C17.062 14.9202 16.4331 15.8186 15.5347 16.4026L18.3198 18.5588Z" fill="#4285F4"/>
<path d="M5.02295 15.9084C5.6139 17.0725 6.46139 18.0873 7.50156 18.8762C8.54172 19.6652 9.7474 20.2077 11.0277 20.4629C12.308 20.7181 13.6296 20.6793 14.8927 20.3495C16.1559 20.0197 17.3277 19.4074 18.3198 18.5588L15.5347 16.4026C13.1538 17.9749 9.20068 17.3909 7.85303 13.7073L5.02295 15.9084Z" fill="#34A853"/>
<path d="M7.85298 13.7073C7.49361 12.5842 7.49361 11.551 7.85298 10.428L5.0229 8.22681C3.9897 10.2932 3.67525 13.2131 5.0229 15.9084L7.85298 13.7073Z" fill="#FBBC02"/>
<path d="M7.85303 10.428C8.84131 7.32836 13.064 5.53149 15.894 8.18188L18.3647 5.7561C14.8608 2.38696 8.03271 2.52172 5.02295 8.2268L7.85303 10.428Z" fill="#EA4335"/>
</g>
<defs>
<clipPath id="clip0_195_3638">
<rect width="23" height="23" fill="white" transform="translate(0.97998 0.590088)"/>
</clipPath>
</defs>
</svg>
