<svg width="16" height="16" viewBox="0 0 16 16" fill="none" xmlns="http://www.w3.org/2000/svg">
<path d="M10.231 8.80686C10.231 8.8784 10.2055 8.93972 10.1544 8.99082L6.15325 12.992C6.10215 13.0431 6.04083 13.0686 5.96929 13.0686C5.89775 13.0686 5.83132 13.0431 5.77 12.992L5.34076 12.5627C5.27944 12.5014 5.24878 12.435 5.24878 12.3634C5.24878 12.2919 5.27944 12.2255 5.34076 12.1641L8.69803 8.80686L5.34076 5.43426C5.27944 5.38316 5.24878 5.32184 5.24878 5.2503C5.24878 5.17876 5.27944 5.11233 5.34076 5.05101L5.77 4.62177C5.8211 4.56045 5.88753 4.52979 5.96929 4.52979C6.05105 4.52979 6.11237 4.56045 6.15325 4.62177L10.1544 8.60757C10.2055 8.65867 10.231 8.7251 10.231 8.80686Z" fill="white"/>
</svg>
