<svg width="9" height="10" viewBox="0 0 9 10" fill="none" xmlns="http://www.w3.org/2000/svg">
<path fill-rule="evenodd" clip-rule="evenodd" d="M4.16593 0.833496C3.03399 0.833496 2.89302 0.838357 2.44788 0.859191C0.93399 0.928635 0.093712 1.76822 0.0242676 3.28211C0.00412869 3.72725 -0.000732422 3.86891 -0.000732422 5.00016C-0.000732422 6.13211 0.00412869 6.27377 0.0242676 6.71822C0.093712 8.23141 0.93399 9.07238 2.44788 9.14183C2.89302 9.16197 3.03399 9.16683 4.16593 9.16683C5.29788 9.16683 5.43955 9.16197 5.88468 9.14183C7.3958 9.07238 8.23954 8.2328 8.3076 6.71822C8.32774 6.27377 8.3326 6.13211 8.3326 5.00016C8.3326 3.86891 8.32774 3.72725 8.3076 3.28211C8.23954 1.7703 7.39857 0.927941 5.88468 0.859191C5.43955 0.838357 5.29788 0.833496 4.16593 0.833496ZM4.16672 1.58474C5.27922 1.58474 5.41116 1.58891 5.85075 1.60905C6.98061 1.66044 7.507 2.19586 7.55908 3.31669C7.57852 3.75627 7.58269 3.88752 7.58269 5.00002C7.58269 6.11252 7.57852 6.24447 7.55908 6.68335C7.507 7.80349 6.9813 8.3403 5.85075 8.39169C5.41116 8.41113 5.27991 8.41599 4.16672 8.41599C3.05422 8.41599 2.92227 8.41183 2.48338 8.39169C1.35144 8.3396 0.827135 7.8021 0.775052 6.68335C0.755607 6.24447 0.750746 6.11252 0.750746 5.00002C0.750746 3.88752 0.755607 3.75558 0.775052 3.31669C0.82644 2.19516 1.35283 1.65974 2.48338 1.60836C2.92227 1.58822 3.05422 1.58474 4.16672 1.58474ZM2.02638 4.99996C2.02638 3.81802 2.98471 2.86038 4.16596 2.86038C5.34721 2.86038 6.30555 3.81871 6.30555 4.99996C6.30555 6.18191 5.34721 7.13954 4.16596 7.13954C2.98471 7.13954 2.02638 6.18191 2.02638 4.99996ZM4.16634 6.38855C3.39898 6.38855 2.77745 5.76702 2.77745 4.99966C2.77745 4.23299 3.39898 3.61077 4.16634 3.61077C4.93301 3.61077 5.55592 4.2323 5.55592 4.99966C5.55592 5.76702 4.93301 6.38855 4.16634 6.38855ZM5.88923 2.77631C5.88923 2.49992 6.11353 2.27631 6.38923 2.27631C6.66631 2.27631 6.88992 2.49992 6.88992 2.77631C6.88992 3.0527 6.66562 3.27631 6.38923 3.27631C6.11284 3.27631 5.88923 3.052 5.88923 2.77631Z" fill="#1D4645"/>
</svg>
