<svg width="46" height="50" viewBox="0 0 46 50" fill="none" xmlns="http://www.w3.org/2000/svg">
<path opacity="0.7" d="M25.2608 9.90112H41.7625C42.2414 9.90112 42.7156 9.99545 43.1581 10.1787C43.6005 10.362 44.0026 10.6306 44.3412 10.9693C44.6798 11.3079 44.9485 11.7099 45.1317 12.1524C45.315 12.5949 45.4093 13.0691 45.4093 13.548V30.0496C45.3788 35.3658 43.2399 40.4525 39.4622 44.193C35.6846 47.9335 30.577 50.0221 25.2608 50.0001C22.6257 50.0001 20.0164 49.4811 17.5819 48.4727C15.1474 47.4643 12.9353 45.9862 11.072 44.1229C7.30891 40.3598 5.19482 35.256 5.19482 29.9341C5.20357 24.618 7.32152 19.5226 11.0837 15.7666C14.8458 12.0107 19.9447 9.90112 25.2608 9.90112Z" fill="#AACDF7"/>
<path d="M35.0133 6.9803C35.4921 7.14447 35.9081 7.45337 36.2037 7.86429C36.4994 8.27521 36.66 8.76783 36.6634 9.27403V24.406C36.6656 28.593 35.1601 32.6407 32.4225 35.8087C31.0158 37.3632 29.3384 38.6492 27.472 39.6041L19.5182 43.8945L11.5479 39.6041C9.67874 38.6536 8.00059 37.367 6.59741 35.8087C3.84268 32.6486 2.32456 28.5983 2.32349 24.406V9.27403C2.32691 8.76783 2.48754 8.27521 2.78317 7.86429C3.07879 7.45337 3.4948 7.14447 3.97365 6.9803L18.6931 1.81529C19.2263 1.62244 19.8101 1.62244 20.3433 1.81529L35.0133 6.9803Z" stroke="#0066F5" stroke-width="3.34983" stroke-linecap="round" stroke-linejoin="round"/>
<path d="M13.6931 22.1617L17.9175 26.4027L26.6304 17.7063" stroke="#0066F5" stroke-width="3.34983" stroke-linecap="round" stroke-linejoin="round"/>
</svg>
