<svg width="27" height="29" viewBox="0 0 27 29" fill="none" xmlns="http://www.w3.org/2000/svg">
<path d="M13.5224 3.51625C9.79867 3.51625 6.77242 6.76667 6.77242 10.7663V14.2583C6.77242 14.9954 6.47992 16.1192 6.13117 16.7475L4.83742 19.0554C4.03867 20.4813 4.58992 22.0642 6.05242 22.5958C10.9012 24.3358 16.1324 24.3358 20.9812 22.5958C22.3424 22.1125 22.9387 20.3846 22.1962 19.0554L20.9024 16.7475C20.5649 16.1192 20.2724 14.9954 20.2724 14.2583V10.7663C20.2724 6.77875 17.2349 3.51625 13.5224 3.51625Z" stroke="#5A57FF" stroke-width="1.5" stroke-miterlimit="10" stroke-linecap="round"/>
<path d="M15.6039 3.86667C14.2435 3.45051 12.8019 3.45051 11.4414 3.86667C11.7677 2.9725 12.5777 2.34417 13.5227 2.34417C14.4677 2.34417 15.2777 2.9725 15.6039 3.86667V3.86667Z" stroke="#5A57FF" stroke-width="1.5" stroke-miterlimit="10" stroke-linecap="round" stroke-linejoin="round"/>
<path d="M16.8975 23.0308C16.8975 25.0246 15.3787 26.6558 13.5225 26.6558C12.6 26.6558 11.745 26.245 11.1375 25.5925C10.5054 24.9126 10.1495 23.9917 10.1475 23.0308" stroke="#5A57FF" stroke-width="1.5" stroke-miterlimit="10"/>
</svg>
