<svg width="17" height="21" viewBox="0 0 17 21" fill="none" xmlns="http://www.w3.org/2000/svg">
<path d="M1.20866 0.083313H15.792C16.0683 0.083313 16.3332 0.19306 16.5286 0.38841C16.7239 0.58376 16.8337 0.848712 16.8337 1.12498V19.875C16.8337 20.1512 16.7239 20.4162 16.5286 20.6115C16.3332 20.8069 16.0683 20.9166 15.792 20.9166H1.20866C0.932392 20.9166 0.66744 20.8069 0.472089 20.6115C0.276739 20.4162 0.166992 20.1512 0.166992 19.875V1.12498C0.166992 0.848712 0.276739 0.58376 0.472089 0.38841C0.66744 0.19306 0.932392 0.083313 1.20866 0.083313ZM5.37533 9.45831V6.33331L0.166992 10.5L5.37533 14.6666V11.5416H11.6253V9.45831H5.37533Z" fill="#8692A6"/>
</svg>
