<svg width="24" height="28" viewBox="0 0 24 28" fill="none" xmlns="http://www.w3.org/2000/svg">
<path d="M12 21.4072C11.59 21.4072 11.25 21.0363 11.25 20.5889V17.3156C11.25 16.8682 11.59 16.4972 12 16.4972C12.41 16.4972 12.75 16.8682 12.75 17.3156V20.5889C12.75 21.0363 12.41 21.4072 12 21.4072Z" fill="white"/>
<path d="M17.6 25.5644H6.39996C4.57996 25.5644 2.91996 24.0368 2.61996 22.0837L1.28996 13.3876C1.06996 12.0346 1.67996 10.2997 2.66996 9.43775L9.59996 3.38209C10.94 2.20369 13.05 2.2146 14.4 3.393L21.33 9.43775C22.31 10.2997 22.91 12.0346 22.71 13.3876L21.38 22.0728C21.08 24.0041 19.38 25.5644 17.6 25.5644ZM11.99 4.14586C11.46 4.14586 10.93 4.32044 10.54 4.65869L3.60996 10.7253C3.04996 11.2163 2.64996 12.351 2.76996 13.1257L4.09996 21.811C4.27996 22.9566 5.32996 23.9277 6.39996 23.9277H17.6C18.67 23.9277 19.72 22.9566 19.9 21.8L21.23 13.1148C21.34 12.351 20.94 11.1944 20.39 10.7144L13.46 4.6696C13.06 4.32044 12.52 4.14586 11.99 4.14586Z" fill="white"/>
</svg>
