<svg width="24" height="27" viewBox="0 0 24 27" fill="none" xmlns="http://www.w3.org/2000/svg">
<path d="M15 25.3561H9C3.57 25.3561 1.25 22.8247 1.25 16.9V10.3533C1.25 4.42859 3.57 1.89722 9 1.89722H14C14.41 1.89722 14.75 2.26819 14.75 2.71555C14.75 3.16291 14.41 3.53388 14 3.53388H9C4.39 3.53388 2.75 5.32331 2.75 10.3533V16.9C2.75 21.93 4.39 23.7194 9 23.7194H15C19.61 23.7194 21.25 21.93 21.25 16.9V11.4444C21.25 10.9971 21.59 10.6261 22 10.6261C22.41 10.6261 22.75 10.9971 22.75 11.4444V16.9C22.75 22.8247 20.43 25.3561 15 25.3561Z" fill="#CCCCCC"/>
<path d="M22 12.2606H18C14.58 12.2606 13.25 10.8094 13.25 7.07781V2.71336C13.25 2.38603 13.43 2.08052 13.71 1.96049C13.99 1.82956 14.31 1.90594 14.53 2.13507L22.53 10.864C22.6343 10.9786 22.7052 11.1243 22.7338 11.2828C22.7624 11.4413 22.7474 11.6054 22.6908 11.7546C22.6342 11.9039 22.5384 12.0315 22.4155 12.1215C22.2926 12.2115 22.148 12.2599 22 12.2606ZM14.75 4.68827V7.07781C14.75 9.89287 15.42 10.6239 18 10.6239H20.19L14.75 4.68827Z" fill="#CCCCCC"/>
</svg>
