<svg width="14" height="15" viewBox="0 0 14 15" fill="none" xmlns="http://www.w3.org/2000/svg">
<path d="M9.05098 8.004C9.05098 8.06934 9.02764 8.12534 8.98098 8.172L5.32698 11.826C5.28031 11.8727 5.22431 11.896 5.15898 11.896C5.09364 11.896 5.03298 11.8727 4.97698 11.826L4.58498 11.434C4.52898 11.378 4.50098 11.3173 4.50098 11.252C4.50098 11.1867 4.52898 11.126 4.58498 11.07L7.65098 8.004L4.58498 4.924C4.52898 4.87734 4.50098 4.82134 4.50098 4.756C4.50098 4.69067 4.52898 4.63 4.58498 4.574L4.97698 4.182C5.02364 4.126 5.08431 4.098 5.15898 4.098C5.23364 4.098 5.28964 4.126 5.32698 4.182L8.98098 7.822C9.02764 7.86867 9.05098 7.92934 9.05098 8.004Z" fill="white"/>
</svg>
