<svg width="22" height="22" viewBox="0 0 22 22" fill="none" xmlns="http://www.w3.org/2000/svg">
<path d="M21.6559 20.5516L15.7559 14.6516C17.1737 12.9495 17.8807 10.7663 17.7298 8.55617C17.579 6.34607 16.5818 4.27921 14.9459 2.78556C13.31 1.29191 11.1611 0.486463 8.94646 0.536785C6.73178 0.587106 4.62177 1.48932 3.05535 3.05573C1.48894 4.62215 0.586725 6.73217 0.536403 8.94684C0.486082 11.1615 1.29152 13.3103 2.78518 14.9463C4.27883 16.5822 6.34569 17.5793 8.55579 17.7302C10.7659 17.8811 12.9491 17.1741 14.6512 15.7562L20.5512 21.6562L21.6559 20.5516ZM2.12462 9.15625C2.12462 7.7656 2.53699 6.40618 3.3096 5.2499C4.0822 4.09361 5.18033 3.1924 6.46512 2.66022C7.74992 2.12804 9.16367 1.9888 10.5276 2.2601C11.8915 2.5314 13.1444 3.20107 14.1277 4.1844C15.111 5.16774 15.7807 6.42059 16.052 7.78452C16.3233 9.14845 16.1841 10.5622 15.6519 11.847C15.1197 13.1318 14.2185 14.2299 13.0622 15.0025C11.9059 15.7751 10.5465 16.1875 9.15587 16.1875C7.2917 16.1854 5.50447 15.444 4.18631 14.1258C2.86814 12.8076 2.12669 11.0204 2.12462 9.15625Z" fill="#8692A6"/>
</svg>
