<svg width="24" height="25" viewBox="0 0 24 25" fill="none" xmlns="http://www.w3.org/2000/svg">
<path d="M15 23.0789H9C3.57 23.0789 1.25 20.7589 1.25 15.3289V9.32886C1.25 3.89886 3.57 1.57886 9 1.57886H15C20.43 1.57886 22.75 3.89886 22.75 9.32886V15.3289C22.75 20.7589 20.43 23.0789 15 23.0789ZM9 3.07886C4.39 3.07886 2.75 4.71886 2.75 9.32886V15.3289C2.75 19.9389 4.39 21.5789 9 21.5789H15C19.61 21.5789 21.25 19.9389 21.25 15.3289V9.32886C21.25 4.71886 19.61 3.07886 15 3.07886H9Z" fill="#CCCCCC"/>
<path d="M15.5801 19.5809C15.1701 19.5809 14.8301 19.2409 14.8301 18.8309V14.9309C14.8301 14.5209 15.1701 14.1809 15.5801 14.1809C15.9901 14.1809 16.3301 14.5209 16.3301 14.9309V18.8309C16.3301 19.2409 15.9901 19.5809 15.5801 19.5809ZM15.5801 8.52886C15.1701 8.52886 14.8301 8.18886 14.8301 7.77886V5.82886C14.8301 5.41886 15.1701 5.07886 15.5801 5.07886C15.9901 5.07886 16.3301 5.41886 16.3301 5.82886V7.77886C16.3301 8.18886 15.9901 8.52886 15.5801 8.52886Z" fill="#CCCCCC"/>
<path d="M15.5799 13.7289C14.9174 13.7289 14.2697 13.5324 13.7188 13.1643C13.1679 12.7962 12.7385 12.273 12.4849 11.6608C12.2314 11.0487 12.165 10.3751 12.2943 9.7253C12.4236 9.07547 12.7426 8.47856 13.2111 8.01005C13.6796 7.54154 14.2765 7.22249 14.9264 7.09323C15.5762 6.96397 16.2498 7.03031 16.8619 7.28386C17.474 7.53741 17.9972 7.96679 18.3653 8.5177C18.7334 9.0686 18.9299 9.71629 18.9299 10.3789C18.9299 12.2289 17.4199 13.7289 15.5799 13.7289ZM15.5799 8.52886C14.5599 8.52886 13.7299 9.35886 13.7299 10.3789C13.7299 11.3989 14.5599 12.2289 15.5799 12.2289C16.5999 12.2289 17.4299 11.3989 17.4299 10.3789C17.4299 9.35886 16.5899 8.52886 15.5799 8.52886ZM8.41992 19.5789C8.00992 19.5789 7.66992 19.2389 7.66992 18.8289V16.8789C7.66992 16.4689 8.00992 16.1289 8.41992 16.1289C8.82992 16.1289 9.16992 16.4689 9.16992 16.8789V18.8289C9.16992 19.2389 8.83992 19.5789 8.41992 19.5789ZM8.41992 10.4789C8.00992 10.4789 7.66992 10.1389 7.66992 9.72886V5.82886C7.66992 5.41886 8.00992 5.07886 8.41992 5.07886C8.82992 5.07886 9.16992 5.41886 9.16992 5.82886V9.72886C9.16992 10.1389 8.83992 10.4789 8.41992 10.4789Z" fill="#CCCCCC"/>
<path d="M8.41982 17.6308C7.9799 17.6308 7.54428 17.5442 7.13784 17.3758C6.73139 17.2075 6.36209 16.9607 6.05102 16.6497C5.73994 16.3386 5.49318 15.9693 5.32483 15.5628C5.15647 15.1564 5.06982 14.7208 5.06982 14.2808C5.06982 13.8409 5.15647 13.4053 5.32483 12.9989C5.49318 12.5924 5.73994 12.2231 6.05102 11.912C6.36209 11.601 6.73139 11.3542 7.13784 11.1859C7.54428 11.0175 7.9799 10.9308 8.41982 10.9308C9.3083 10.9308 10.1604 11.2838 10.7886 11.912C11.4169 12.5403 11.7698 13.3924 11.7698 14.2808C11.7698 15.1693 11.4169 16.0214 10.7886 16.6497C10.1604 17.2779 9.3083 17.6308 8.41982 17.6308ZM8.41982 12.4308C7.39982 12.4308 6.56982 13.2608 6.56982 14.2808C6.56982 15.3008 7.39982 16.1308 8.41982 16.1308C9.43982 16.1308 10.2698 15.3008 10.2698 14.2808C10.2698 13.2608 9.44982 12.4308 8.41982 12.4308Z" fill="#CCCCCC"/>
</svg>
