<svg width="595" height="467" viewBox="0 0 595 467" fill="none" xmlns="http://www.w3.org/2000/svg">
<g filter="url(#filter0_d_8_759)">
<rect x="65" y="42" width="465" height="336" rx="40" fill="white"/>
<rect x="65.5" y="42.3658" width="464" height="334.991" rx="39.5" fill="white" stroke="#CCCCCC"/>
<path d="M96.88 109L93.56 103.3H91.36V109H89.54V95.06H94.04C95.0933 95.06 95.98 95.24 96.7 95.6C97.4333 95.96 97.98 96.4467 98.34 97.06C98.7 97.6733 98.88 98.3733 98.88 99.16C98.88 100.12 98.6 100.967 98.04 101.7C97.4933 102.433 96.6667 102.92 95.56 103.16L99.06 109H96.88ZM91.36 101.84H94.04C95.0267 101.84 95.7667 101.6 96.26 101.12C96.7533 100.627 97 99.9733 97 99.16C97 98.3333 96.7533 97.6933 96.26 97.24C95.78 96.7867 95.04 96.56 94.04 96.56H91.36V101.84ZM111.708 103.1C111.708 103.447 111.688 103.813 111.648 104.2H102.888C102.955 105.28 103.321 106.127 103.988 106.74C104.668 107.34 105.488 107.64 106.448 107.64C107.235 107.64 107.888 107.46 108.408 107.1C108.941 106.727 109.315 106.233 109.528 105.62H111.488C111.195 106.673 110.608 107.533 109.728 108.2C108.848 108.853 107.755 109.18 106.448 109.18C105.408 109.18 104.475 108.947 103.648 108.48C102.835 108.013 102.195 107.353 101.728 106.5C101.261 105.633 101.028 104.633 101.028 103.5C101.028 102.367 101.255 101.373 101.708 100.52C102.161 99.6667 102.795 99.0133 103.608 98.56C104.435 98.0933 105.381 97.86 106.448 97.86C107.488 97.86 108.408 98.0867 109.208 98.54C110.008 98.9933 110.621 99.62 111.048 100.42C111.488 101.207 111.708 102.1 111.708 103.1ZM109.828 102.72C109.828 102.027 109.675 101.433 109.368 100.94C109.061 100.433 108.641 100.053 108.108 99.8C107.588 99.5333 107.008 99.4 106.368 99.4C105.448 99.4 104.661 99.6933 104.008 100.28C103.368 100.867 103.001 101.68 102.908 102.72H109.828ZM118.63 97.86C119.577 97.86 120.404 98.0667 121.11 98.48C121.83 98.8933 122.364 99.4133 122.71 100.04V98.04H124.55V109.24C124.55 110.24 124.337 111.127 123.91 111.9C123.484 112.687 122.87 113.3 122.07 113.74C121.284 114.18 120.364 114.4 119.31 114.4C117.87 114.4 116.67 114.06 115.71 113.38C114.75 112.7 114.184 111.773 114.01 110.6H115.81C116.01 111.267 116.424 111.8 117.05 112.2C117.677 112.613 118.43 112.82 119.31 112.82C120.31 112.82 121.124 112.507 121.75 111.88C122.39 111.253 122.71 110.373 122.71 109.24V106.94C122.35 107.58 121.817 108.113 121.11 108.54C120.404 108.967 119.577 109.18 118.63 109.18C117.657 109.18 116.77 108.94 115.97 108.46C115.184 107.98 114.564 107.307 114.11 106.44C113.657 105.573 113.43 104.587 113.43 103.48C113.43 102.36 113.657 101.38 114.11 100.54C114.564 99.6867 115.184 99.0267 115.97 98.56C116.77 98.0933 117.657 97.86 118.63 97.86ZM122.71 103.5C122.71 102.673 122.544 101.953 122.21 101.34C121.877 100.727 121.424 100.26 120.85 99.94C120.29 99.6067 119.67 99.44 118.99 99.44C118.31 99.44 117.69 99.6 117.13 99.92C116.57 100.24 116.124 100.707 115.79 101.32C115.457 101.933 115.29 102.653 115.29 103.48C115.29 104.32 115.457 105.053 115.79 105.68C116.124 106.293 116.57 106.767 117.13 107.1C117.69 107.42 118.31 107.58 118.99 107.58C119.67 107.58 120.29 107.42 120.85 107.1C121.424 106.767 121.877 106.293 122.21 105.68C122.544 105.053 122.71 104.327 122.71 103.5ZM128.566 96.26C128.219 96.26 127.926 96.14 127.686 95.9C127.446 95.66 127.326 95.3667 127.326 95.02C127.326 94.6733 127.446 94.38 127.686 94.14C127.926 93.9 128.219 93.78 128.566 93.78C128.899 93.78 129.179 93.9 129.406 94.14C129.646 94.38 129.766 94.6733 129.766 95.02C129.766 95.3667 129.646 95.66 129.406 95.9C129.179 96.14 128.899 96.26 128.566 96.26ZM129.446 98.04V109H127.626V98.04H129.446ZM136.428 109.18C135.588 109.18 134.834 109.04 134.168 108.76C133.501 108.467 132.974 108.067 132.588 107.56C132.201 107.04 131.988 106.447 131.948 105.78H133.828C133.881 106.327 134.134 106.773 134.588 107.12C135.054 107.467 135.661 107.64 136.408 107.64C137.101 107.64 137.648 107.487 138.048 107.18C138.448 106.873 138.648 106.487 138.648 106.02C138.648 105.54 138.434 105.187 138.008 104.96C137.581 104.72 136.921 104.487 136.028 104.26C135.214 104.047 134.548 103.833 134.028 103.62C133.521 103.393 133.081 103.067 132.708 102.64C132.348 102.2 132.168 101.627 132.168 100.92C132.168 100.36 132.334 99.8467 132.668 99.38C133.001 98.9133 133.474 98.5467 134.088 98.28C134.701 98 135.401 97.86 136.188 97.86C137.401 97.86 138.381 98.1667 139.128 98.78C139.874 99.3933 140.274 100.233 140.328 101.3H138.508C138.468 100.727 138.234 100.267 137.808 99.92C137.394 99.5733 136.834 99.4 136.128 99.4C135.474 99.4 134.954 99.54 134.568 99.82C134.181 100.1 133.988 100.467 133.988 100.92C133.988 101.28 134.101 101.58 134.328 101.82C134.568 102.047 134.861 102.233 135.208 102.38C135.568 102.513 136.061 102.667 136.688 102.84C137.474 103.053 138.114 103.267 138.608 103.48C139.101 103.68 139.521 103.987 139.868 104.4C140.228 104.813 140.414 105.353 140.428 106.02C140.428 106.62 140.261 107.16 139.928 107.64C139.594 108.12 139.121 108.5 138.508 108.78C137.908 109.047 137.214 109.18 136.428 109.18ZM145.217 99.54V106C145.217 106.533 145.33 106.913 145.557 107.14C145.784 107.353 146.177 107.46 146.737 107.46H148.077V109H146.437C145.424 109 144.664 108.767 144.157 108.3C143.65 107.833 143.397 107.067 143.397 106V99.54H141.977V98.04H143.397V95.28H145.217V98.04H148.077V99.54H145.217ZM152.102 99.82C152.422 99.1933 152.876 98.7067 153.462 98.36C154.062 98.0133 154.789 97.84 155.642 97.84V99.72H155.162C153.122 99.72 152.102 100.827 152.102 103.04V109H150.282V98.04H152.102V99.82ZM157.063 103.48C157.063 102.36 157.29 101.38 157.743 100.54C158.196 99.6867 158.816 99.0267 159.603 98.56C160.403 98.0933 161.29 97.86 162.263 97.86C163.223 97.86 164.056 98.0667 164.763 98.48C165.47 98.8933 165.996 99.4133 166.343 100.04V98.04H168.183V109H166.343V106.96C165.983 107.6 165.443 108.133 164.723 108.56C164.016 108.973 163.19 109.18 162.243 109.18C161.27 109.18 160.39 108.94 159.603 108.46C158.816 107.98 158.196 107.307 157.743 106.44C157.29 105.573 157.063 104.587 157.063 103.48ZM166.343 103.5C166.343 102.673 166.176 101.953 165.843 101.34C165.51 100.727 165.056 100.26 164.483 99.94C163.923 99.6067 163.303 99.44 162.623 99.44C161.943 99.44 161.323 99.6 160.763 99.92C160.203 100.24 159.756 100.707 159.423 101.32C159.09 101.933 158.923 102.653 158.923 103.48C158.923 104.32 159.09 105.053 159.423 105.68C159.756 106.293 160.203 106.767 160.763 107.1C161.323 107.42 161.943 107.58 162.623 107.58C163.303 107.58 163.923 107.42 164.483 107.1C165.056 106.767 165.51 106.293 165.843 105.68C166.176 105.053 166.343 104.327 166.343 103.5ZM173.479 99.54V106C173.479 106.533 173.592 106.913 173.819 107.14C174.045 107.353 174.439 107.46 174.999 107.46H176.339V109H174.699C173.685 109 172.925 108.767 172.419 108.3C171.912 107.833 171.659 107.067 171.659 106V99.54H170.239V98.04H171.659V95.28H173.479V98.04H176.339V99.54H173.479ZM179.484 96.26C179.137 96.26 178.844 96.14 178.604 95.9C178.364 95.66 178.244 95.3667 178.244 95.02C178.244 94.6733 178.364 94.38 178.604 94.14C178.844 93.9 179.137 93.78 179.484 93.78C179.817 93.78 180.097 93.9 180.324 94.14C180.564 94.38 180.684 94.6733 180.684 95.02C180.684 95.3667 180.564 95.66 180.324 95.9C180.097 96.14 179.817 96.26 179.484 96.26ZM180.364 98.04V109H178.544V98.04H180.364ZM188.246 109.18C187.219 109.18 186.286 108.947 185.446 108.48C184.619 108.013 183.966 107.353 183.486 106.5C183.019 105.633 182.786 104.633 182.786 103.5C182.786 102.38 183.026 101.393 183.506 100.54C183.999 99.6733 184.666 99.0133 185.506 98.56C186.346 98.0933 187.286 97.86 188.326 97.86C189.366 97.86 190.306 98.0933 191.146 98.56C191.986 99.0133 192.646 99.6667 193.126 100.52C193.619 101.373 193.866 102.367 193.866 103.5C193.866 104.633 193.612 105.633 193.106 106.5C192.612 107.353 191.939 108.013 191.086 108.48C190.232 108.947 189.286 109.18 188.246 109.18ZM188.246 107.58C188.899 107.58 189.512 107.427 190.086 107.12C190.659 106.813 191.119 106.353 191.466 105.74C191.826 105.127 192.006 104.38 192.006 103.5C192.006 102.62 191.832 101.873 191.486 101.26C191.139 100.647 190.686 100.193 190.126 99.9C189.566 99.5933 188.959 99.44 188.306 99.44C187.639 99.44 187.026 99.5933 186.466 99.9C185.919 100.193 185.479 100.647 185.146 101.26C184.812 101.873 184.646 102.62 184.646 103.5C184.646 104.393 184.806 105.147 185.126 105.76C185.459 106.373 185.899 106.833 186.446 107.14C186.992 107.433 187.592 107.58 188.246 107.58ZM201.599 97.84C202.932 97.84 204.012 98.2467 204.839 99.06C205.665 99.86 206.079 101.02 206.079 102.54V109H204.279V102.8C204.279 101.707 204.005 100.873 203.459 100.3C202.912 99.7133 202.165 99.42 201.219 99.42C200.259 99.42 199.492 99.72 198.919 100.32C198.359 100.92 198.079 101.793 198.079 102.94V109H196.259V98.04H198.079V99.6C198.439 99.04 198.925 98.6067 199.539 98.3C200.165 97.9933 200.852 97.84 201.599 97.84ZM212.932 109.18C212.092 109.18 211.338 109.04 210.672 108.76C210.005 108.467 209.478 108.067 209.092 107.56C208.705 107.04 208.492 106.447 208.452 105.78H210.332C210.385 106.327 210.638 106.773 211.092 107.12C211.558 107.467 212.165 107.64 212.912 107.64C213.605 107.64 214.152 107.487 214.552 107.18C214.952 106.873 215.152 106.487 215.152 106.02C215.152 105.54 214.938 105.187 214.512 104.96C214.085 104.72 213.425 104.487 212.532 104.26C211.718 104.047 211.052 103.833 210.532 103.62C210.025 103.393 209.585 103.067 209.212 102.64C208.852 102.2 208.672 101.627 208.672 100.92C208.672 100.36 208.838 99.8467 209.172 99.38C209.505 98.9133 209.978 98.5467 210.592 98.28C211.205 98 211.905 97.86 212.692 97.86C213.905 97.86 214.885 98.1667 215.632 98.78C216.378 99.3933 216.778 100.233 216.832 101.3H215.012C214.972 100.727 214.738 100.267 214.312 99.92C213.898 99.5733 213.338 99.4 212.632 99.4C211.978 99.4 211.458 99.54 211.072 99.82C210.685 100.1 210.492 100.467 210.492 100.92C210.492 101.28 210.605 101.58 210.832 101.82C211.072 102.047 211.365 102.233 211.712 102.38C212.072 102.513 212.565 102.667 213.192 102.84C213.978 103.053 214.618 103.267 215.112 103.48C215.605 103.68 216.025 103.987 216.372 104.4C216.732 104.813 216.918 105.353 216.932 106.02C216.932 106.62 216.765 107.16 216.432 107.64C216.098 108.12 215.625 108.5 215.012 108.78C214.412 109.047 213.718 109.18 212.932 109.18Z" fill="#CCCCCC"/>
<path d="M88.9066 143.186C88.9706 141.474 89.5306 140.154 90.5866 139.226C91.6426 138.298 93.0746 137.834 94.8826 137.834C96.0826 137.834 97.1066 138.042 97.9546 138.458C98.8186 138.874 99.4666 139.442 99.8986 140.162C100.347 140.882 100.571 141.69 100.571 142.586C100.571 143.642 100.307 144.506 99.7786 145.178C99.2506 145.834 98.6346 146.282 97.9306 146.522V146.618C98.8426 146.922 99.5626 147.426 100.091 148.13C100.619 148.834 100.883 149.738 100.883 150.842C100.883 151.834 100.651 152.714 100.187 153.482C99.7386 154.234 99.0746 154.826 98.1946 155.258C97.3306 155.69 96.2986 155.906 95.0986 155.906C93.1786 155.906 91.6426 155.434 90.4906 154.49C89.3546 153.546 88.7546 152.122 88.6906 150.218H92.6746C92.6906 150.922 92.8906 151.482 93.2746 151.898C93.6586 152.298 94.2186 152.498 94.9546 152.498C95.5786 152.498 96.0586 152.322 96.3946 151.97C96.7466 151.602 96.9226 151.122 96.9226 150.53C96.9226 149.762 96.6746 149.21 96.1786 148.874C95.6986 148.522 94.9226 148.346 93.8506 148.346H93.0826V145.01H93.8506C94.6666 145.01 95.3226 144.874 95.8186 144.602C96.3306 144.314 96.5866 143.81 96.5866 143.09C96.5866 142.514 96.4266 142.066 96.1066 141.746C95.7866 141.426 95.3466 141.266 94.7866 141.266C94.1786 141.266 93.7226 141.45 93.4186 141.818C93.1306 142.186 92.9626 142.642 92.9146 143.186H88.9066ZM116.35 141.818H108.862V145.13C109.182 144.778 109.63 144.49 110.206 144.266C110.782 144.042 111.406 143.93 112.078 143.93C113.278 143.93 114.27 144.202 115.054 144.746C115.854 145.29 116.438 145.994 116.806 146.858C117.174 147.722 117.358 148.658 117.358 149.666C117.358 151.538 116.83 153.026 115.774 154.13C114.718 155.218 113.23 155.762 111.31 155.762C110.03 155.762 108.918 155.546 107.974 155.114C107.03 154.666 106.302 154.05 105.79 153.266C105.278 152.482 104.998 151.578 104.95 150.554H108.958C109.054 151.05 109.286 151.466 109.654 151.802C110.022 152.122 110.526 152.282 111.166 152.282C111.918 152.282 112.478 152.042 112.846 151.562C113.214 151.082 113.398 150.442 113.398 149.642C113.398 148.858 113.206 148.258 112.822 147.842C112.438 147.426 111.878 147.218 111.142 147.218C110.598 147.218 110.15 147.354 109.798 147.626C109.446 147.882 109.214 148.226 109.102 148.658H105.142V138.218H116.35V141.818ZM119.911 142.058V138.242H126.559V155.762H122.287V142.058H119.911Z" fill="#353535"/>
<rect x="382.561" y="220.494" width="22.6829" height="134.68" rx="11.3415" fill="url(#paint0_linear_8_759)"/>
<rect x="427.927" y="255.936" width="22.6829" height="99.2378" rx="11.3415" fill="url(#paint1_linear_8_759)"/>
<rect x="337.195" y="234.671" width="22.6829" height="120.503" rx="11.3415" fill="url(#paint2_linear_8_759)"/>
<rect x="291.829" y="248.848" width="22.6829" height="106.326" rx="11.3415" fill="url(#paint3_linear_8_759)"/>
<rect x="246.464" y="234.671" width="22.6829" height="120.503" rx="11.3415" fill="url(#paint4_linear_8_759)"/>
<rect x="201.098" y="277.201" width="22.6829" height="77.9726" rx="11.3415" fill="url(#paint5_linear_8_759)"/>
<rect x="155.731" y="255.936" width="22.6829" height="99.2378" rx="11.3415" fill="url(#paint6_linear_8_759)"/>
<rect x="110.366" y="241.759" width="22.6829" height="113.415" rx="11.3415" fill="url(#paint7_linear_8_759)"/>
<path d="M489.596 117.359C489.327 117.359 489.057 117.26 488.845 117.047L483.812 112.014L482.267 114.339C482.096 114.609 481.799 114.779 481.487 114.807C481.331 114.823 481.173 114.803 481.026 114.749C480.878 114.695 480.745 114.608 480.636 114.495L476.1 109.959C475.902 109.758 475.791 109.489 475.791 109.207C475.791 108.926 475.902 108.656 476.1 108.456C476.511 108.045 477.191 108.045 477.602 108.456L481.217 112.071L482.763 109.746C482.933 109.491 483.216 109.321 483.542 109.278C483.869 109.25 484.18 109.363 484.393 109.59L490.347 115.544C490.758 115.955 490.758 116.636 490.347 117.047C490.135 117.26 489.865 117.359 489.596 117.359Z" fill="#CCCCCC"/>
<path d="M489.596 117.357H486.761C486.179 117.357 485.697 116.875 485.697 116.294C485.697 115.713 486.179 115.231 486.761 115.231H488.533V113.459C488.533 112.878 489.015 112.396 489.596 112.396C490.177 112.396 490.659 112.878 490.659 113.459V116.294C490.659 116.875 490.177 117.357 489.596 117.357Z" fill="#CCCCCC"/>
<path d="M487.47 127.99H478.964C471.266 127.99 467.977 124.701 467.977 117.003V108.497C467.977 100.799 471.266 97.5099 478.964 97.5099H487.47C495.168 97.5099 498.457 100.799 498.457 108.497V117.003C498.457 124.701 495.168 127.99 487.47 127.99ZM478.964 99.6364C472.428 99.6364 470.103 101.961 470.103 108.497V117.003C470.103 123.539 472.428 125.864 478.964 125.864H487.47C494.005 125.864 496.33 123.539 496.33 117.003V108.497C496.33 101.961 494.005 99.6364 487.47 99.6364H478.964Z" fill="#CCCCCC"/>
</g>
<defs>
<filter id="filter0_d_8_759" x="0" y="0.865845" width="595" height="466.134" filterUnits="userSpaceOnUse" color-interpolation-filters="sRGB">
<feFlood flood-opacity="0" result="BackgroundImageFix"/>
<feColorMatrix in="SourceAlpha" type="matrix" values="0 0 0 0 0 0 0 0 0 0 0 0 0 0 0 0 0 0 127 0" result="hardAlpha"/>
<feOffset dy="24"/>
<feGaussianBlur stdDeviation="32.5"/>
<feComposite in2="hardAlpha" operator="out"/>
<feColorMatrix type="matrix" values="0 0 0 0 0.078875 0 0 0 0 0.0770833 0 0 0 0 0.166667 0 0 0 0.16 0"/>
<feBlend mode="normal" in2="BackgroundImageFix" result="effect1_dropShadow_8_759"/>
<feBlend mode="normal" in="SourceGraphic" in2="effect1_dropShadow_8_759" result="shape"/>
</filter>
<linearGradient id="paint0_linear_8_759" x1="393.902" y1="220.494" x2="393.902" y2="355.174" gradientUnits="userSpaceOnUse">
<stop stop-color="#7AFF9F"/>
<stop offset="1" stop-color="#FFF9FB" stop-opacity="0.33"/>
</linearGradient>
<linearGradient id="paint1_linear_8_759" x1="439.268" y1="255.936" x2="439.268" y2="355.174" gradientUnits="userSpaceOnUse">
<stop stop-color="#7AFF9F"/>
<stop offset="1" stop-color="#FFF9FB" stop-opacity="0.33"/>
</linearGradient>
<linearGradient id="paint2_linear_8_759" x1="348.537" y1="234.671" x2="348.537" y2="355.174" gradientUnits="userSpaceOnUse">
<stop stop-color="#7AFF9F"/>
<stop offset="1" stop-color="#FFF9FB" stop-opacity="0.33"/>
</linearGradient>
<linearGradient id="paint3_linear_8_759" x1="303.171" y1="248.848" x2="303.171" y2="355.174" gradientUnits="userSpaceOnUse">
<stop stop-color="#7AFF9F"/>
<stop offset="1" stop-color="#FFF9FB" stop-opacity="0.33"/>
</linearGradient>
<linearGradient id="paint4_linear_8_759" x1="257.805" y1="234.671" x2="257.805" y2="355.174" gradientUnits="userSpaceOnUse">
<stop stop-color="#7AFF9F"/>
<stop offset="1" stop-color="#FFF9FB" stop-opacity="0.33"/>
</linearGradient>
<linearGradient id="paint5_linear_8_759" x1="212.439" y1="277.201" x2="212.439" y2="355.174" gradientUnits="userSpaceOnUse">
<stop stop-color="#7AFF9F"/>
<stop offset="1" stop-color="#FFF9FB" stop-opacity="0.33"/>
</linearGradient>
<linearGradient id="paint6_linear_8_759" x1="167.073" y1="255.936" x2="167.073" y2="355.174" gradientUnits="userSpaceOnUse">
<stop stop-color="#7AFF9F"/>
<stop offset="1" stop-color="#FFF9FB" stop-opacity="0.33"/>
</linearGradient>
<linearGradient id="paint7_linear_8_759" x1="121.708" y1="241.759" x2="121.708" y2="355.174" gradientUnits="userSpaceOnUse">
<stop stop-color="#7AFF9F"/>
<stop offset="1" stop-color="#FFF9FB" stop-opacity="0.33"/>
</linearGradient>
</defs>
</svg>
