<svg width="597" height="467" viewBox="0 0 597 467" fill="none" xmlns="http://www.w3.org/2000/svg">
<g filter="url(#filter0_d_8_742)">
<rect x="67" y="41" width="465" height="337" rx="40" fill="white"/>
<rect x="66.3057" y="41.5" width="465.194" height="335.854" rx="39.5" fill="white" stroke="#CCCCCC"/>
<path d="M91.9069 96.0223V100.682H96.9869V102.182H91.9069V106.982H97.5869V108.482H90.0869V94.5223H97.5869V96.0223H91.9069ZM106.061 108.482L103.461 104.402L100.961 108.482H99.0608L102.601 103.042L99.0608 97.5223H101.121L103.721 101.582L106.201 97.5223H108.101L104.581 102.942L108.121 108.482H106.061ZM109.231 102.962C109.231 101.842 109.458 100.862 109.911 100.022C110.364 99.169 110.984 98.509 111.771 98.0423C112.571 97.5757 113.458 97.3423 114.431 97.3423C115.391 97.3423 116.224 97.549 116.931 97.9623C117.638 98.3757 118.164 98.8957 118.511 99.5223V97.5223H120.351V108.482H118.511V106.442C118.151 107.082 117.611 107.616 116.891 108.042C116.184 108.456 115.358 108.662 114.411 108.662C113.438 108.662 112.558 108.422 111.771 107.942C110.984 107.462 110.364 106.789 109.911 105.922C109.458 105.056 109.231 104.069 109.231 102.962ZM118.511 102.982C118.511 102.156 118.344 101.436 118.011 100.822C117.678 100.209 117.224 99.7423 116.651 99.4223C116.091 99.089 115.471 98.9223 114.791 98.9223C114.111 98.9223 113.491 99.0823 112.931 99.4023C112.371 99.7223 111.924 100.189 111.591 100.802C111.258 101.416 111.091 102.136 111.091 102.962C111.091 103.802 111.258 104.536 111.591 105.162C111.924 105.776 112.371 106.249 112.931 106.582C113.491 106.902 114.111 107.062 114.791 107.062C115.471 107.062 116.091 106.902 116.651 106.582C117.224 106.249 117.678 105.776 118.011 105.162C118.344 104.536 118.511 103.809 118.511 102.982ZM136.607 97.3223C137.46 97.3223 138.22 97.5023 138.887 97.8623C139.553 98.209 140.08 98.7357 140.467 99.4423C140.853 100.149 141.047 101.009 141.047 102.022V108.482H139.247V102.282C139.247 101.189 138.973 100.356 138.427 99.7823C137.893 99.1957 137.167 98.9023 136.247 98.9023C135.3 98.9023 134.547 99.209 133.987 99.8223C133.427 100.422 133.147 101.296 133.147 102.442V108.482H131.347V102.282C131.347 101.189 131.073 100.356 130.527 99.7823C129.993 99.1957 129.267 98.9023 128.347 98.9023C127.4 98.9023 126.647 99.209 126.087 99.8223C125.527 100.422 125.247 101.296 125.247 102.442V108.482H123.427V97.5223H125.247V99.1023C125.607 98.529 126.087 98.089 126.687 97.7823C127.3 97.4757 127.973 97.3223 128.707 97.3223C129.627 97.3223 130.44 97.529 131.147 97.9423C131.853 98.3557 132.38 98.9623 132.727 99.7623C133.033 98.989 133.54 98.389 134.247 97.9623C134.953 97.5357 135.74 97.3223 136.607 97.3223ZM147.912 108.662C147.072 108.662 146.319 108.522 145.652 108.242C144.986 107.949 144.459 107.549 144.072 107.042C143.686 106.522 143.472 105.929 143.432 105.262H145.312C145.366 105.809 145.619 106.256 146.072 106.602C146.539 106.949 147.146 107.122 147.892 107.122C148.586 107.122 149.132 106.969 149.532 106.662C149.932 106.356 150.132 105.969 150.132 105.502C150.132 105.022 149.919 104.669 149.492 104.442C149.066 104.202 148.406 103.969 147.512 103.742C146.699 103.529 146.032 103.316 145.512 103.102C145.006 102.876 144.566 102.549 144.192 102.122C143.832 101.682 143.652 101.109 143.652 100.402C143.652 99.8423 143.819 99.329 144.152 98.8623C144.486 98.3957 144.959 98.029 145.572 97.7623C146.186 97.4823 146.886 97.3423 147.672 97.3423C148.886 97.3423 149.866 97.649 150.612 98.2623C151.359 98.8757 151.759 99.7157 151.812 100.782H149.992C149.952 100.209 149.719 99.749 149.292 99.4023C148.879 99.0557 148.319 98.8823 147.612 98.8823C146.959 98.8823 146.439 99.0223 146.052 99.3023C145.666 99.5823 145.472 99.949 145.472 100.402C145.472 100.762 145.586 101.062 145.812 101.302C146.052 101.529 146.346 101.716 146.692 101.862C147.052 101.996 147.546 102.149 148.172 102.322C148.959 102.536 149.599 102.749 150.092 102.962C150.586 103.162 151.006 103.469 151.352 103.882C151.712 104.296 151.899 104.836 151.912 105.502C151.912 106.102 151.746 106.642 151.412 107.122C151.079 107.602 150.606 107.982 149.992 108.262C149.392 108.529 148.699 108.662 147.912 108.662Z" fill="#CCCCCC"/>
<path d="M89.4829 151.834C90.0269 151.402 90.2749 151.202 90.2269 151.234C91.7949 149.938 93.0269 148.874 93.9229 148.042C94.8349 147.21 95.6029 146.338 96.2269 145.426C96.8509 144.514 97.1629 143.626 97.1629 142.762C97.1629 142.106 97.0109 141.594 96.7069 141.226C96.4029 140.858 95.9469 140.674 95.3389 140.674C94.7309 140.674 94.2509 140.906 93.8989 141.37C93.5629 141.818 93.3949 142.458 93.3949 143.29H89.4349C89.4669 141.93 89.7549 140.794 90.2989 139.882C90.8589 138.97 91.5869 138.298 92.4829 137.866C93.3949 137.434 94.4029 137.218 95.5069 137.218C97.4109 137.218 98.8429 137.706 99.8029 138.682C100.779 139.658 101.267 140.93 101.267 142.498C101.267 144.21 100.683 145.802 99.5149 147.274C98.3469 148.73 96.8589 150.154 95.0509 151.546H101.531V154.882H89.4829V151.834ZM104.058 146.122C104.058 143.37 104.586 141.202 105.642 139.618C106.714 138.034 108.434 137.242 110.802 137.242C113.17 137.242 114.882 138.034 115.938 139.618C117.01 141.202 117.546 143.37 117.546 146.122C117.546 148.906 117.01 151.09 115.938 152.674C114.882 154.258 113.17 155.05 110.802 155.05C108.434 155.05 106.714 154.258 105.642 152.674C104.586 151.09 104.058 148.906 104.058 146.122ZM113.514 146.122C113.514 144.506 113.338 143.266 112.986 142.402C112.634 141.522 111.906 141.082 110.802 141.082C109.698 141.082 108.97 141.522 108.618 142.402C108.266 143.266 108.09 144.506 108.09 146.122C108.09 147.21 108.154 148.114 108.282 148.834C108.41 149.538 108.666 150.114 109.05 150.562C109.45 150.994 110.034 151.21 110.802 151.21C111.57 151.21 112.146 150.994 112.53 150.562C112.93 150.114 113.194 149.538 113.322 148.834C113.45 148.114 113.514 147.21 113.514 146.122ZM120.578 142.546C120.642 140.834 121.202 139.514 122.258 138.586C123.314 137.658 124.746 137.194 126.554 137.194C127.754 137.194 128.778 137.402 129.626 137.818C130.49 138.234 131.138 138.802 131.57 139.522C132.018 140.242 132.242 141.05 132.242 141.946C132.242 143.002 131.978 143.866 131.45 144.538C130.922 145.194 130.306 145.642 129.602 145.882V145.978C130.514 146.282 131.234 146.786 131.762 147.49C132.29 148.194 132.554 149.098 132.554 150.202C132.554 151.194 132.322 152.074 131.858 152.842C131.41 153.594 130.746 154.186 129.866 154.618C129.002 155.05 127.97 155.266 126.77 155.266C124.85 155.266 123.314 154.794 122.162 153.85C121.026 152.906 120.426 151.482 120.362 149.578H124.346C124.362 150.282 124.562 150.842 124.946 151.258C125.33 151.658 125.89 151.858 126.626 151.858C127.25 151.858 127.73 151.682 128.066 151.33C128.418 150.962 128.594 150.482 128.594 149.89C128.594 149.122 128.346 148.57 127.85 148.234C127.37 147.882 126.594 147.706 125.522 147.706H124.754V144.37H125.522C126.338 144.37 126.994 144.234 127.49 143.962C128.002 143.674 128.258 143.17 128.258 142.45C128.258 141.874 128.098 141.426 127.778 141.106C127.458 140.786 127.018 140.626 126.458 140.626C125.85 140.626 125.394 140.81 125.09 141.178C124.802 141.546 124.634 142.002 124.586 142.546H120.578Z" fill="#353535"/>
<path d="M473.725 123.081H465.197C457.479 123.081 454.182 119.784 454.182 112.066V103.538C454.182 95.8205 457.479 92.523 465.197 92.523H473.725C481.443 92.523 484.74 95.8205 484.74 103.538V112.066C484.74 119.784 481.443 123.081 473.725 123.081ZM465.197 94.655C458.645 94.655 456.314 96.9859 456.314 103.538V112.066C456.314 118.618 458.645 120.949 465.197 120.949H473.725C480.277 120.949 482.608 118.618 482.608 112.066V103.538C482.608 96.9859 480.277 94.655 473.725 94.655H465.197Z" fill="#CCCCCC"/>
<path d="M462.824 112.404C462.596 112.404 462.369 112.333 462.17 112.177C462.059 112.092 461.966 111.986 461.895 111.865C461.825 111.744 461.78 111.611 461.761 111.472C461.743 111.333 461.752 111.193 461.788 111.058C461.824 110.922 461.886 110.796 461.971 110.685L465.354 106.293C465.766 105.767 466.349 105.426 467.017 105.34C467.67 105.255 468.338 105.44 468.864 105.852L471.465 107.899C471.565 107.984 471.664 107.984 471.735 107.97C471.792 107.97 471.892 107.942 471.977 107.828L475.26 103.592C475.345 103.481 475.451 103.388 475.573 103.318C475.694 103.248 475.829 103.203 475.968 103.186C476.107 103.169 476.248 103.179 476.382 103.218C476.517 103.256 476.643 103.32 476.753 103.407C477.222 103.763 477.307 104.431 476.937 104.9L473.654 109.135C473.242 109.661 472.659 110.002 471.991 110.073C471.323 110.159 470.669 109.974 470.144 109.562L467.542 107.515C467.506 107.483 467.463 107.46 467.416 107.448C467.369 107.435 467.32 107.434 467.272 107.444C467.216 107.444 467.116 107.472 467.031 107.586L463.648 111.978C463.463 112.262 463.151 112.404 462.824 112.404Z" fill="#CCCCCC"/>
<rect x="384.182" y="220.087" width="22.7412" height="135.026" rx="11.3706" fill="url(#paint0_linear_8_742)"/>
<rect x="429.664" y="205.873" width="22.7412" height="149.239" rx="11.3706" fill="url(#paint1_linear_8_742)"/>
<rect x="338.7" y="234.3" width="22.7412" height="120.812" rx="11.3706" fill="url(#paint2_linear_8_742)"/>
<rect x="293.217" y="248.513" width="22.7412" height="106.599" rx="11.3706" fill="url(#paint3_linear_8_742)"/>
<rect x="247.735" y="262.727" width="22.7412" height="92.386" rx="11.3706" fill="url(#paint4_linear_8_742)"/>
<rect x="202.252" y="276.94" width="22.7412" height="78.1728" rx="11.3706" fill="url(#paint5_linear_8_742)"/>
<rect x="156.771" y="255.62" width="22.7412" height="99.4926" rx="11.3706" fill="url(#paint6_linear_8_742)"/>
<rect x="111.288" y="269.833" width="22.7412" height="85.2794" rx="11.3706" fill="url(#paint7_linear_8_742)"/>
</g>
<defs>
<filter id="filter0_d_8_742" x="0.805664" y="0" width="596.194" height="467" filterUnits="userSpaceOnUse" color-interpolation-filters="sRGB">
<feFlood flood-opacity="0" result="BackgroundImageFix"/>
<feColorMatrix in="SourceAlpha" type="matrix" values="0 0 0 0 0 0 0 0 0 0 0 0 0 0 0 0 0 0 127 0" result="hardAlpha"/>
<feOffset dy="24"/>
<feGaussianBlur stdDeviation="32.5"/>
<feComposite in2="hardAlpha" operator="out"/>
<feColorMatrix type="matrix" values="0 0 0 0 0.078875 0 0 0 0 0.0770833 0 0 0 0 0.166667 0 0 0 0.16 0"/>
<feBlend mode="normal" in2="BackgroundImageFix" result="effect1_dropShadow_8_742"/>
<feBlend mode="normal" in="SourceGraphic" in2="effect1_dropShadow_8_742" result="shape"/>
</filter>
<linearGradient id="paint0_linear_8_742" x1="395.552" y1="220.087" x2="395.552" y2="355.112" gradientUnits="userSpaceOnUse">
<stop stop-color="#5A57FF"/>
<stop offset="1" stop-color="#B0AEF8" stop-opacity="0.16"/>
</linearGradient>
<linearGradient id="paint1_linear_8_742" x1="441.035" y1="205.873" x2="441.035" y2="355.112" gradientUnits="userSpaceOnUse">
<stop stop-color="#5A57FF"/>
<stop offset="1" stop-color="#B0AEF8" stop-opacity="0.16"/>
</linearGradient>
<linearGradient id="paint2_linear_8_742" x1="350.07" y1="234.3" x2="350.07" y2="355.113" gradientUnits="userSpaceOnUse">
<stop stop-color="#5A57FF"/>
<stop offset="1" stop-color="#B0AEF8" stop-opacity="0.16"/>
</linearGradient>
<linearGradient id="paint3_linear_8_742" x1="304.588" y1="248.513" x2="304.588" y2="355.113" gradientUnits="userSpaceOnUse">
<stop stop-color="#5A57FF"/>
<stop offset="1" stop-color="#B0AEF8" stop-opacity="0.16"/>
</linearGradient>
<linearGradient id="paint4_linear_8_742" x1="259.105" y1="262.727" x2="259.105" y2="355.113" gradientUnits="userSpaceOnUse">
<stop stop-color="#5A57FF"/>
<stop offset="1" stop-color="#B0AEF8" stop-opacity="0.16"/>
</linearGradient>
<linearGradient id="paint5_linear_8_742" x1="213.623" y1="276.94" x2="213.623" y2="355.112" gradientUnits="userSpaceOnUse">
<stop stop-color="#5A57FF"/>
<stop offset="1" stop-color="#B0AEF8" stop-opacity="0.16"/>
</linearGradient>
<linearGradient id="paint6_linear_8_742" x1="168.141" y1="255.62" x2="168.141" y2="355.113" gradientUnits="userSpaceOnUse">
<stop stop-color="#5A57FF"/>
<stop offset="1" stop-color="#B0AEF8" stop-opacity="0.16"/>
</linearGradient>
<linearGradient id="paint7_linear_8_742" x1="122.659" y1="269.833" x2="122.659" y2="355.113" gradientUnits="userSpaceOnUse">
<stop stop-color="#5A57FF"/>
<stop offset="1" stop-color="#B0AEF8" stop-opacity="0.16"/>
</linearGradient>
</defs>
</svg>
