<svg width="249" height="249" viewBox="0 0 249 249" fill="none" xmlns="http://www.w3.org/2000/svg">
<g clip-path="url(#clip0_852_963)">
<path d="M221.333 27.6665H27.6663C23.9975 27.6665 20.4789 29.1239 17.8847 31.7182C15.2904 34.3124 13.833 37.831 13.833 41.4998V207.5C13.833 211.169 15.2904 214.687 17.8847 217.281C20.4789 219.876 23.9975 221.333 27.6663 221.333H221.333C225.002 221.333 228.52 219.876 231.115 217.281C233.709 214.687 235.166 211.169 235.166 207.5V41.4998C235.166 37.831 233.709 34.3124 231.115 31.7182C228.52 29.1239 225.002 27.6665 221.333 27.6665ZM61.6963 55.3332C65.8003 55.3332 69.8121 56.5501 73.2244 58.8302C76.6367 61.1102 79.2963 64.3509 80.8668 68.1425C82.4374 71.9341 82.8483 76.1062 82.0476 80.1313C81.247 84.1564 79.2708 87.8537 76.3688 90.7556C73.4669 93.6576 69.7696 95.6338 65.7445 96.4345C61.7194 97.2351 57.5472 96.8242 53.7557 95.2537C49.9641 93.6832 46.7234 91.0236 44.4433 87.6113C42.1633 84.1989 40.9463 80.1871 40.9463 76.0832C40.9463 70.5799 43.1325 65.3021 47.0239 61.4107C50.9153 57.5193 56.1931 55.3332 61.6963 55.3332ZM41.4997 186.75V158.392L82.9997 116.338C84.2956 115.05 86.0486 114.327 87.8759 114.327C89.7032 114.327 91.4562 115.05 92.7522 116.338L110.666 133.837L57.5463 186.75H41.4997ZM207.5 186.75H77.1205L120.211 143.659L157.561 106.309C158.857 105.021 160.61 104.298 162.438 104.298C164.265 104.298 166.018 105.021 167.314 106.309L207.5 146.495V186.75Z" fill="black"/>
<path d="M70.6086 235.818H72.7613V242.43C72.7613 243.173 72.584 243.822 72.2293 244.379C71.878 244.936 71.3858 245.37 70.7528 245.682C70.1197 245.99 69.3823 246.144 68.5404 246.144C67.6952 246.144 66.9561 245.99 66.3231 245.682C65.69 245.37 65.1978 244.936 64.8465 244.379C64.4952 243.822 64.3195 243.173 64.3195 242.43V235.818H66.4722V242.246C66.4722 242.634 66.5567 242.979 66.7258 243.281C66.8981 243.582 67.1401 243.819 67.4516 243.991C67.7632 244.164 68.1261 244.25 68.5404 244.25C68.958 244.25 69.3209 244.164 69.6292 243.991C69.9407 243.819 70.181 243.582 70.3501 243.281C70.5224 242.979 70.6086 242.634 70.6086 242.246V235.818ZM74.4926 248.864V238.364H76.5807V239.646H76.6752C76.768 239.441 76.9022 239.232 77.0779 239.02C77.2568 238.804 77.4888 238.625 77.7739 238.483C78.0622 238.337 78.4202 238.264 78.8477 238.264C79.4046 238.264 79.9183 238.41 80.3889 238.702C80.8596 238.99 81.2358 239.426 81.5175 240.009C81.7992 240.589 81.9401 241.317 81.9401 242.192C81.9401 243.044 81.8025 243.763 81.5274 244.349C81.2557 244.933 80.8844 245.375 80.4138 245.677C79.9465 245.975 79.4228 246.124 78.8428 246.124C78.4318 246.124 78.0821 246.056 77.7938 245.92C77.5087 245.785 77.2751 245.614 77.0928 245.408C76.9105 245.2 76.7713 244.989 76.6752 244.777H76.6105V248.864H74.4926ZM76.5658 242.182C76.5658 242.636 76.6288 243.032 76.7547 243.37C76.8807 243.708 77.0629 243.972 77.3016 244.161C77.5402 244.346 77.8302 244.439 78.1716 244.439C78.5163 244.439 78.808 244.344 79.0466 244.156C79.2852 243.963 79.4659 243.698 79.5885 243.36C79.7145 243.019 79.7774 242.626 79.7774 242.182C79.7774 241.741 79.7161 241.353 79.5935 241.018C79.4709 240.684 79.2902 240.422 79.0516 240.233C78.8129 240.044 78.5196 239.95 78.1716 239.95C77.8269 239.95 77.5352 240.041 77.2966 240.223C77.0613 240.405 76.8807 240.664 76.7547 240.999C76.6288 241.333 76.5658 241.728 76.5658 242.182ZM85.4699 235.818V246H83.352V235.818H85.4699ZM90.6167 246.149C89.8445 246.149 89.1766 245.985 88.6132 245.657C88.0531 245.326 87.6205 244.865 87.3156 244.275C87.0107 243.682 86.8582 242.994 86.8582 242.212C86.8582 241.423 87.0107 240.733 87.3156 240.143C87.6205 239.55 88.0531 239.089 88.6132 238.761C89.1766 238.43 89.8445 238.264 90.6167 238.264C91.389 238.264 92.0552 238.43 92.6153 238.761C93.1788 239.089 93.613 239.55 93.9179 240.143C94.2228 240.733 94.3753 241.423 94.3753 242.212C94.3753 242.994 94.2228 243.682 93.9179 244.275C93.613 244.865 93.1788 245.326 92.6153 245.657C92.0552 245.985 91.389 246.149 90.6167 246.149ZM90.6267 244.509C90.978 244.509 91.2713 244.409 91.5067 244.21C91.742 244.008 91.9193 243.733 92.0386 243.385C92.1613 243.037 92.2226 242.641 92.2226 242.197C92.2226 241.753 92.1613 241.357 92.0386 241.009C91.9193 240.661 91.742 240.385 91.5067 240.183C91.2713 239.981 90.978 239.88 90.6267 239.88C90.272 239.88 89.9738 239.981 89.7318 240.183C89.4932 240.385 89.3125 240.661 89.1899 241.009C89.0706 241.357 89.0109 241.753 89.0109 242.197C89.0109 242.641 89.0706 243.037 89.1899 243.385C89.3125 243.733 89.4932 244.008 89.7318 244.21C89.9738 244.409 90.272 244.509 90.6267 244.509ZM97.93 246.144C97.4427 246.144 97.0086 246.06 96.6274 245.891C96.2462 245.718 95.9446 245.465 95.7226 245.13C95.5038 244.792 95.3944 244.371 95.3944 243.867C95.3944 243.443 95.4723 243.087 95.6281 242.798C95.7839 242.51 95.996 242.278 96.2645 242.102C96.5329 241.927 96.8379 241.794 97.1792 241.705C97.5239 241.615 97.8852 241.552 98.2631 241.516C98.7072 241.469 99.0651 241.426 99.3369 241.386C99.6087 241.343 99.8059 241.28 99.9285 241.197C100.051 241.115 100.112 240.992 100.112 240.83V240.8C100.112 240.485 100.013 240.241 99.8142 240.069C99.6186 239.897 99.3402 239.81 98.979 239.81C98.5978 239.81 98.2945 239.895 98.0692 240.064C97.8438 240.23 97.6946 240.438 97.6217 240.69L95.6629 240.531C95.7623 240.067 95.9579 239.666 96.2496 239.328C96.5412 238.987 96.9174 238.725 97.3781 238.543C97.8421 238.357 98.3791 238.264 98.9889 238.264C99.4131 238.264 99.8192 238.314 100.207 238.413C100.598 238.513 100.944 238.667 101.246 238.876C101.551 239.085 101.791 239.353 101.967 239.681C102.143 240.006 102.23 240.395 102.23 240.849V246H100.222V244.941H100.162C100.04 245.18 99.8755 245.39 99.67 245.572C99.4645 245.751 99.2176 245.892 98.9292 245.995C98.6409 246.094 98.3078 246.144 97.93 246.144ZM98.5365 244.683C98.848 244.683 99.1231 244.621 99.3618 244.499C99.6004 244.373 99.7877 244.204 99.9236 243.991C100.059 243.779 100.127 243.539 100.127 243.271V242.46C100.061 242.503 99.97 242.543 99.854 242.58C99.7413 242.613 99.6137 242.644 99.4711 242.674C99.3286 242.701 99.1861 242.725 99.0436 242.749C98.9011 242.768 98.7718 242.787 98.6558 242.803C98.4072 242.84 98.1901 242.898 98.0045 242.977C97.8189 243.057 97.6747 243.165 97.572 243.3C97.4693 243.433 97.4179 243.599 97.4179 243.798C97.4179 244.086 97.5223 244.306 97.7311 244.459C97.9432 244.608 98.2117 244.683 98.5365 244.683ZM106.687 246.124C106.107 246.124 105.582 245.975 105.111 245.677C104.644 245.375 104.273 244.933 103.998 244.349C103.726 243.763 103.59 243.044 103.59 242.192C103.59 241.317 103.731 240.589 104.013 240.009C104.294 239.426 104.669 238.99 105.136 238.702C105.607 238.41 106.122 238.264 106.682 238.264C107.11 238.264 107.466 238.337 107.751 238.483C108.04 238.625 108.272 238.804 108.447 239.02C108.626 239.232 108.762 239.441 108.855 239.646H108.92V235.818H111.033V246H108.945V244.777H108.855C108.756 244.989 108.615 245.2 108.432 245.408C108.253 245.614 108.02 245.785 107.731 245.92C107.446 246.056 107.098 246.124 106.687 246.124ZM107.359 244.439C107.7 244.439 107.988 244.346 108.224 244.161C108.462 243.972 108.645 243.708 108.771 243.37C108.9 243.032 108.964 242.636 108.964 242.182C108.964 241.728 108.901 241.333 108.775 240.999C108.65 240.664 108.467 240.405 108.229 240.223C107.99 240.041 107.7 239.95 107.359 239.95C107.011 239.95 106.717 240.044 106.479 240.233C106.24 240.422 106.059 240.684 105.937 241.018C105.814 241.353 105.753 241.741 105.753 242.182C105.753 242.626 105.814 243.019 105.937 243.36C106.063 243.698 106.243 243.963 106.479 244.156C106.717 244.344 107.011 244.439 107.359 244.439ZM122.343 235.818H124.496V242.43C124.496 243.173 124.318 243.822 123.964 244.379C123.612 244.936 123.12 245.37 122.487 245.682C121.854 245.99 121.117 246.144 120.275 246.144C119.43 246.144 118.69 245.99 118.057 245.682C117.424 245.37 116.932 244.936 116.581 244.379C116.23 243.822 116.054 243.173 116.054 242.43V235.818H118.207V242.246C118.207 242.634 118.291 242.979 118.46 243.281C118.632 243.582 118.874 243.819 119.186 243.991C119.498 244.164 119.86 244.25 120.275 244.25C120.692 244.25 121.055 244.164 121.364 243.991C121.675 243.819 121.915 243.582 122.084 243.281C122.257 242.979 122.343 242.634 122.343 242.246V235.818ZM132.581 240.541L130.642 240.661C130.609 240.495 130.537 240.346 130.428 240.213C130.319 240.077 130.174 239.969 129.995 239.89C129.82 239.807 129.609 239.766 129.364 239.766C129.036 239.766 128.759 239.835 128.534 239.974C128.308 240.11 128.196 240.293 128.196 240.521C128.196 240.704 128.269 240.858 128.415 240.984C128.56 241.11 128.811 241.211 129.165 241.287L130.547 241.565C131.29 241.718 131.843 241.963 132.208 242.301C132.572 242.639 132.755 243.083 132.755 243.634C132.755 244.134 132.607 244.573 132.312 244.951C132.021 245.329 131.62 245.624 131.109 245.836C130.602 246.045 130.017 246.149 129.354 246.149C128.343 246.149 127.538 245.939 126.938 245.518C126.341 245.094 125.992 244.517 125.889 243.788L127.972 243.678C128.035 243.987 128.187 244.222 128.429 244.384C128.671 244.543 128.981 244.623 129.359 244.623C129.73 244.623 130.029 244.552 130.254 244.409C130.483 244.263 130.599 244.076 130.602 243.847C130.599 243.655 130.517 243.498 130.358 243.375C130.199 243.249 129.954 243.153 129.623 243.087L128.3 242.823C127.554 242.674 126.999 242.415 126.635 242.048C126.273 241.68 126.093 241.211 126.093 240.641C126.093 240.15 126.225 239.728 126.491 239.373C126.759 239.018 127.135 238.745 127.619 238.553C128.106 238.36 128.676 238.264 129.329 238.264C130.294 238.264 131.053 238.468 131.606 238.876C132.163 239.283 132.488 239.839 132.581 240.541ZM137.568 246.149C136.783 246.149 136.107 245.99 135.54 245.672C134.977 245.35 134.542 244.896 134.237 244.31C133.933 243.72 133.78 243.022 133.78 242.217C133.78 241.431 133.933 240.742 134.237 240.148C134.542 239.555 134.972 239.093 135.525 238.761C136.082 238.43 136.735 238.264 137.484 238.264C137.988 238.264 138.457 238.345 138.891 238.508C139.328 238.667 139.71 238.907 140.034 239.229C140.362 239.55 140.618 239.955 140.8 240.442C140.982 240.926 141.073 241.492 141.073 242.142V242.724H134.625V241.411H139.08C139.08 241.106 139.014 240.836 138.881 240.601C138.748 240.366 138.564 240.182 138.329 240.049C138.097 239.913 137.827 239.845 137.519 239.845C137.197 239.845 136.912 239.92 136.664 240.069C136.418 240.215 136.226 240.412 136.087 240.661C135.948 240.906 135.876 241.179 135.873 241.481V242.729C135.873 243.107 135.943 243.433 136.082 243.708C136.224 243.983 136.425 244.195 136.684 244.344C136.942 244.494 137.249 244.568 137.603 244.568C137.839 244.568 138.054 244.535 138.25 244.469C138.445 244.402 138.612 244.303 138.752 244.17C138.891 244.038 138.997 243.875 139.07 243.683L141.029 243.812C140.929 244.283 140.725 244.694 140.417 245.045C140.112 245.393 139.718 245.665 139.234 245.861C138.753 246.053 138.198 246.149 137.568 246.149ZM142.456 246V238.364H144.509V239.696H144.588C144.728 239.222 144.961 238.864 145.289 238.622C145.617 238.377 145.995 238.254 146.423 238.254C146.529 238.254 146.643 238.261 146.766 238.274C146.889 238.287 146.996 238.306 147.089 238.329V240.208C146.99 240.178 146.852 240.152 146.676 240.129C146.501 240.105 146.34 240.094 146.194 240.094C145.883 240.094 145.604 240.162 145.359 240.298C145.117 240.43 144.925 240.616 144.782 240.854C144.643 241.093 144.573 241.368 144.573 241.68V246H142.456ZM151.464 246V235.818H155.481C156.253 235.818 156.911 235.966 157.455 236.261C157.998 236.552 158.413 236.958 158.698 237.479C158.986 237.996 159.13 238.592 159.13 239.268C159.13 239.945 158.984 240.541 158.693 241.058C158.401 241.575 157.978 241.978 157.425 242.266C156.875 242.555 156.209 242.699 155.426 242.699H152.866V240.974H155.078C155.493 240.974 155.834 240.902 156.103 240.76C156.374 240.614 156.576 240.414 156.709 240.158C156.845 239.9 156.913 239.603 156.913 239.268C156.913 238.93 156.845 238.635 156.709 238.384C156.576 238.128 156.374 237.931 156.103 237.792C155.831 237.649 155.486 237.578 155.068 237.578H153.617V246H151.464ZM160.489 246V238.364H162.607V246H160.489ZM161.553 237.379C161.238 237.379 160.968 237.275 160.742 237.066C160.52 236.854 160.409 236.6 160.409 236.305C160.409 236.014 160.52 235.763 160.742 235.555C160.968 235.343 161.238 235.237 161.553 235.237C161.868 235.237 162.136 235.343 162.358 235.555C162.583 235.763 162.696 236.014 162.696 236.305C162.696 236.6 162.583 236.854 162.358 237.066C162.136 237.275 161.868 237.379 161.553 237.379ZM167.753 246.149C166.971 246.149 166.298 245.983 165.735 245.652C165.175 245.317 164.744 244.853 164.442 244.26C164.144 243.667 163.995 242.984 163.995 242.212C163.995 241.429 164.146 240.743 164.447 240.153C164.752 239.56 165.185 239.098 165.745 238.766C166.305 238.432 166.971 238.264 167.744 238.264C168.41 238.264 168.993 238.385 169.494 238.627C169.994 238.869 170.39 239.209 170.682 239.646C170.973 240.084 171.134 240.598 171.164 241.188H169.165C169.109 240.806 168.96 240.5 168.718 240.268C168.479 240.032 168.166 239.915 167.778 239.915C167.45 239.915 167.164 240.004 166.918 240.183C166.676 240.359 166.487 240.616 166.351 240.954C166.216 241.292 166.148 241.701 166.148 242.182C166.148 242.669 166.214 243.083 166.347 243.425C166.482 243.766 166.673 244.026 166.918 244.205C167.164 244.384 167.45 244.474 167.778 244.474C168.02 244.474 168.237 244.424 168.43 244.325C168.625 244.225 168.786 244.081 168.912 243.892C169.041 243.7 169.126 243.469 169.165 243.201H171.164C171.131 243.784 170.972 244.298 170.687 244.742C170.405 245.183 170.016 245.528 169.518 245.776C169.021 246.025 168.433 246.149 167.753 246.149ZM176.582 238.364V239.955H171.983V238.364H176.582ZM173.027 236.534H175.145V243.653C175.145 243.849 175.175 244.001 175.234 244.111C175.294 244.217 175.377 244.291 175.483 244.335C175.592 244.378 175.718 244.399 175.861 244.399C175.96 244.399 176.06 244.391 176.159 244.374C176.259 244.354 176.335 244.339 176.388 244.33L176.721 245.906C176.615 245.939 176.466 245.977 176.274 246.02C176.081 246.066 175.848 246.094 175.573 246.104C175.062 246.124 174.615 246.056 174.23 245.901C173.849 245.745 173.552 245.503 173.34 245.175C173.128 244.847 173.024 244.432 173.027 243.932V236.534ZM182.858 242.749V238.364H184.976V246H182.943V244.613H182.863C182.691 245.06 182.404 245.42 182.003 245.692C181.606 245.964 181.12 246.099 180.547 246.099C180.036 246.099 179.587 245.983 179.199 245.751C178.812 245.519 178.508 245.19 178.29 244.762C178.074 244.335 177.965 243.822 177.961 243.226V238.364H180.079V242.848C180.083 243.299 180.204 243.655 180.442 243.917C180.681 244.179 181.001 244.31 181.402 244.31C181.657 244.31 181.896 244.252 182.118 244.136C182.34 244.016 182.519 243.841 182.655 243.609C182.794 243.377 182.862 243.09 182.858 242.749ZM186.67 246V238.364H188.724V239.696H188.803C188.942 239.222 189.176 238.864 189.504 238.622C189.832 238.377 190.21 238.254 190.638 238.254C190.744 238.254 190.858 238.261 190.981 238.274C191.103 238.287 191.211 238.306 191.304 238.329V240.208C191.204 240.178 191.067 240.152 190.891 240.129C190.716 240.105 190.555 240.094 190.409 240.094C190.097 240.094 189.819 240.162 189.574 240.298C189.332 240.43 189.14 240.616 188.997 240.854C188.858 241.093 188.788 241.368 188.788 241.68V246H186.67ZM195.524 246.149C194.738 246.149 194.062 245.99 193.495 245.672C192.932 245.35 192.497 244.896 192.193 244.31C191.888 243.72 191.735 243.022 191.735 242.217C191.735 241.431 191.888 240.742 192.193 240.148C192.497 239.555 192.927 239.093 193.48 238.761C194.037 238.43 194.69 238.264 195.439 238.264C195.943 238.264 196.412 238.345 196.846 238.508C197.283 238.667 197.665 238.907 197.989 239.229C198.318 239.55 198.573 239.955 198.755 240.442C198.937 240.926 199.028 241.492 199.028 242.142V242.724H192.58V241.411H197.035C197.035 241.106 196.969 240.836 196.836 240.601C196.703 240.366 196.52 240.182 196.284 240.049C196.052 239.913 195.782 239.845 195.474 239.845C195.152 239.845 194.867 239.92 194.619 240.069C194.373 240.215 194.181 240.412 194.042 240.661C193.903 240.906 193.832 241.179 193.828 241.481V242.729C193.828 243.107 193.898 243.433 194.037 243.708C194.18 243.983 194.38 244.195 194.639 244.344C194.897 244.494 195.204 244.568 195.558 244.568C195.794 244.568 196.009 244.535 196.205 244.469C196.4 244.402 196.568 244.303 196.707 244.17C196.846 244.038 196.952 243.875 197.025 243.683L198.984 243.812C198.884 244.283 198.68 244.694 198.372 245.045C198.067 245.393 197.673 245.665 197.189 245.861C196.708 246.053 196.153 246.149 195.524 246.149Z" fill="black"/>
</g>
<defs>
<clipPath id="clip0_852_963">
<rect width="249" height="249" fill="white"/>
</clipPath>
</defs>
</svg>
