<svg width="21" height="21" viewBox="0 0 21 21" fill="none" xmlns="http://www.w3.org/2000/svg">
<path d="M10.4997 0.083374C4.75592 0.083374 0.0830078 4.75629 0.0830078 10.5V14.8157C0.0830078 15.8823 1.01738 16.75 2.16634 16.75H3.20801C3.48427 16.75 3.74923 16.6403 3.94458 16.4449C4.13993 16.2496 4.24967 15.9846 4.24967 15.7084V10.3511C4.24967 10.0748 4.13993 9.80986 3.94458 9.61451C3.74923 9.41916 3.48427 9.30942 3.20801 9.30942H2.26217C2.84134 5.27817 6.31009 2.16671 10.4997 2.16671C14.6893 2.16671 18.158 5.27817 18.7372 9.30942H17.7913C17.5151 9.30942 17.2501 9.41916 17.0548 9.61451C16.8594 9.80986 16.7497 10.0748 16.7497 10.3511V16.75C16.7497 17.899 15.8153 18.8334 14.6663 18.8334H12.583V17.7917H8.41634V20.9167H14.6663C16.9643 20.9167 18.833 19.048 18.833 16.75C19.982 16.75 20.9163 15.8823 20.9163 14.8157V10.5C20.9163 4.75629 16.2434 0.083374 10.4997 0.083374Z" fill="#696F79"/>
</svg>
