<svg width="38" height="38" viewBox="0 0 38 38" fill="none" xmlns="http://www.w3.org/2000/svg">
<g clip-path="url(#clip0_296_1378)">
<mask id="mask0_296_1378" style="mask-type:luminance" maskUnits="userSpaceOnUse" x="10" y="10" width="18" height="18">
<path d="M27.6931 10.0959H10.3074V27.4817H27.6931V10.0959Z" fill="white"/>
</mask>
<g mask="url(#mask0_296_1378)">
<path d="M19.0003 11.255H19.5798C19.5798 11.0355 19.4558 10.8348 19.2595 10.7367L19.0003 11.255ZM19.0003 12.4141L19.2595 12.9324C19.4558 12.8342 19.5798 12.6336 19.5798 12.4141H19.0003ZM17.8412 12.9936L17.582 12.4753C17.3973 12.5676 17.2757 12.7514 17.2628 12.9576C17.25 13.1638 17.3479 13.3612 17.5198 13.4757L17.8412 12.9936ZM19.5798 14.1526L19.2584 14.6348C19.3535 14.6983 19.4654 14.7321 19.5798 14.7321V14.1526ZM20.1593 14.1526V14.7321C20.4794 14.7321 20.7389 14.4727 20.7389 14.1526H20.1593ZM20.1593 12.9936V12.4141C19.8393 12.4141 19.5798 12.6735 19.5798 12.9936H20.1593ZM21.8979 12.9936H22.4774C22.4774 12.6735 22.218 12.4141 21.8979 12.4141V12.9936ZM21.8979 14.1526H21.3184C21.3184 14.3063 21.3795 14.4537 21.4881 14.5624L21.8979 14.1526ZM22.4774 14.7321H23.0569C23.0569 14.5784 22.9958 14.431 22.8872 14.3224L22.4774 14.7321ZM22.4774 15.8912L22.8872 16.301C22.9958 16.1923 23.0569 16.0449 23.0569 15.8912H22.4774ZM21.8979 16.4707V17.0503C22.0516 17.0503 22.199 16.9892 22.3078 16.8805L21.8979 16.4707ZM20.7389 16.4707L20.4797 16.989C20.5601 17.0293 20.6489 17.0503 20.7389 17.0503V16.4707ZM18.4207 15.3117L18.6799 14.7933C18.5167 14.7118 18.3247 14.7118 18.1616 14.7933L18.4207 15.3117ZM17.2617 15.8912V16.4707C17.3517 16.4707 17.4404 16.4498 17.5209 16.4096L17.2617 15.8912ZM15.5231 15.8912V15.3117C15.2572 15.3117 15.0254 15.4927 14.9609 15.7506L15.5231 15.8912ZM14.9436 18.2093L14.3814 18.0688C14.332 18.2662 14.3899 18.4752 14.5338 18.6191L14.9436 18.2093ZM16.6822 19.9479L16.2724 20.3577C16.3164 20.4017 16.3673 20.4384 16.423 20.4662L16.6822 19.9479ZM17.8412 20.5274H18.4207C18.4207 20.3079 18.2967 20.1072 18.1004 20.0091L17.8412 20.5274ZM17.8412 22.266H17.2617C17.2617 22.4197 17.3227 22.5671 17.4314 22.6758L17.8412 22.266ZM18.4207 22.8455H19.0003C19.0003 22.6918 18.9392 22.5444 18.8305 22.4357L18.4207 22.8455ZM18.4207 24.0046H17.8412C17.8412 24.0945 17.8621 24.1833 17.9024 24.2637L18.4207 24.0046ZM19.0003 25.1636L18.4819 25.4228C18.5801 25.6191 18.7808 25.7431 19.0003 25.7431V25.1636ZM20.1593 25.1636V25.7431C20.3531 25.7431 20.5341 25.6463 20.6415 25.4851L20.1593 25.1636ZM21.3184 23.4251L21.8005 23.7465C21.8139 23.7265 21.8259 23.7057 21.8367 23.6842L21.3184 23.4251ZM21.8979 22.266L22.4162 22.5251C22.4565 22.4447 22.4774 22.3559 22.4774 22.266H21.8979ZM21.8979 21.1069L21.4343 20.7592C21.359 20.8595 21.3184 20.9816 21.3184 21.1069H21.8979ZM23.6365 18.7888L24.1001 19.1365C24.2317 18.9609 24.253 18.726 24.1548 18.5296L23.6365 18.7888ZM23.0569 17.6298V17.0503C22.8561 17.0503 22.6696 17.1543 22.564 17.3251C22.4584 17.496 22.4488 17.7093 22.5386 17.8889L23.0569 17.6298ZM24.7955 17.6298V18.2093C25.1156 18.2093 25.3751 17.9499 25.3751 17.6298H24.7955ZM24.7955 16.4707V15.8912C24.4755 15.8912 24.216 16.1507 24.216 16.4707H24.7955ZM19.0003 26.3227C14.8394 26.3227 11.4664 22.9497 11.4664 18.7888H10.3074C10.3074 23.5897 14.1993 27.4817 19.0003 27.4817V26.3227ZM26.5341 18.7888C26.5341 22.9497 23.1612 26.3227 19.0003 26.3227V27.4817C23.8012 27.4817 27.6931 23.5897 27.6931 18.7888H26.5341ZM19.0003 11.255C23.1612 11.255 26.5341 14.628 26.5341 18.7888H27.6931C27.6931 13.9879 23.8012 10.0959 19.0003 10.0959V11.255ZM19.0003 10.0959C14.1993 10.0959 10.3074 13.9879 10.3074 18.7888H11.4664C11.4664 14.628 14.8394 11.255 19.0003 11.255V10.0959ZM17.582 11.1938L18.7411 11.7734L19.2595 10.7367L18.1004 10.1571L17.582 11.1938ZM18.4207 11.255V12.4141H19.5798V11.255H18.4207ZM18.7411 11.8957L17.582 12.4753L18.1004 13.5119L19.2595 12.9324L18.7411 11.8957ZM17.5198 13.4757L19.2584 14.6348L19.9013 13.6704L18.1627 12.5114L17.5198 13.4757ZM19.5798 14.7321H20.1593V13.5731H19.5798V14.7321ZM20.7389 14.1526V12.9936H19.5798V14.1526H20.7389ZM20.1593 13.5731H21.8979V12.4141H20.1593V13.5731ZM21.3184 12.9936V14.1526H22.4774V12.9936H21.3184ZM21.4881 14.5624L22.0676 15.1419L22.8872 14.3224L22.3078 13.7428L21.4881 14.5624ZM21.8979 14.7321V15.8912H23.0569V14.7321H21.8979ZM22.0676 15.4814L21.4881 16.061L22.3078 16.8805L22.8872 16.301L22.0676 15.4814ZM21.8979 15.8912H20.7389V17.0503H21.8979V15.8912ZM20.998 15.9524L18.6799 14.7933L18.1616 15.83L20.4797 16.989L20.998 15.9524ZM18.1616 14.7933L17.0025 15.3729L17.5209 16.4096L18.6799 15.83L18.1616 14.7933ZM17.2617 15.3117H15.5231V16.4707H17.2617V15.3117ZM14.9609 15.7506L14.3814 18.0688L15.5058 18.3499L16.0853 16.0317L14.9609 15.7506ZM14.5338 18.6191L16.2724 20.3577L17.0919 19.5381L15.3534 17.7995L14.5338 18.6191ZM16.423 20.4662L17.582 21.0458L18.1004 20.0091L16.9413 19.4295L16.423 20.4662ZM17.2617 20.5274V22.266H18.4207V20.5274H17.2617ZM17.4314 22.6758L18.011 23.2554L18.8305 22.4357L18.251 21.8561L17.4314 22.6758ZM17.8412 22.8455V24.0046H19.0003V22.8455H17.8412ZM17.9024 24.2637L18.4819 25.4228L19.5186 24.9044L18.9391 23.7454L17.9024 24.2637ZM19.0003 25.7431H20.1593V24.5841H19.0003V25.7431ZM20.6415 25.4851L21.8005 23.7465L20.8362 23.1035L19.6771 24.8421L20.6415 25.4851ZM21.8367 23.6842L22.4162 22.5251L21.3795 22.0068L20.8001 23.1658L21.8367 23.6842ZM22.4774 22.266V21.1069H21.3184V22.266H22.4774ZM22.3615 21.4547L24.1001 19.1365L23.1729 18.4411L21.4343 20.7592L22.3615 21.4547ZM24.1548 18.5296L23.5753 17.3706L22.5386 17.8889L23.1181 19.048L24.1548 18.5296ZM23.0569 18.2093H24.7955V17.0503H23.0569V18.2093ZM25.3751 17.6298V16.4707H24.216V17.6298H25.3751ZM24.7955 17.0503H27.1137V15.8912H24.7955V17.0503Z" fill="#0066F5"/>
</g>
<path d="M19.0001 37.1406C29.1354 37.1406 37.3517 28.9242 37.3517 18.7889C37.3517 8.65357 29.1354 0.437256 19.0001 0.437256C8.86475 0.437256 0.648438 8.65357 0.648438 18.7889C0.648438 28.9242 8.86475 37.1406 19.0001 37.1406Z" fill="#9BC0F3" fill-opacity="0.16"/>
</g>
<defs>
<clipPath id="clip0_296_1378">
<rect width="36.7033" height="36.7033" fill="white" transform="translate(0.648438 0.437256)"/>
</clipPath>
</defs>
</svg>
