<svg width="50" height="50" viewBox="0 0 50 50" fill="none" xmlns="http://www.w3.org/2000/svg">
<g clip-path="url(#clip0_168_649)">
<path opacity="0.7" d="M31.1139 8.84402H46.6708C47.5827 8.84402 48.4571 9.20625 49.1019 9.85101C49.7467 10.4958 50.1089 11.3703 50.1089 12.2821V27.839C50.0987 30.3233 49.5993 32.7812 48.6392 35.0725C47.6791 37.3637 46.2771 39.4434 44.5132 41.1928C42.7494 42.9422 40.6582 44.3271 38.3591 45.2683C36.0601 46.2095 33.5981 46.6887 31.1139 46.6785C28.627 46.6826 26.1637 46.1963 23.865 45.2474C21.5663 44.2986 19.4772 42.9058 17.7173 41.1488C15.9573 39.3917 14.5611 37.3049 13.6085 35.0078C12.6559 32.7106 12.1655 30.2481 12.1655 27.7613C12.1655 25.2744 12.6559 22.8119 13.6085 20.5147C14.5611 18.2176 15.9573 16.1308 17.7173 14.3737C19.4772 12.6167 21.5663 11.2239 23.865 10.2751C26.1637 9.32622 28.627 8.83993 31.1139 8.84402Z" fill="#AACDF7"/>
<path d="M20.224 4.98584H12.2277C5.67825 4.98584 1.55566 9.62181 1.55566 16.1713V33.8751C1.55566 40.4401 5.63158 45.0605 12.1966 45.0605H31.0049C37.57 45.0605 41.6615 40.3934 41.6615 33.8751V25.3032" stroke="#0066F5" stroke-width="3.15806" stroke-linecap="round" stroke-linejoin="round"/>
<path d="M14.5147 22.2853L30.4139 6.43275C31.3696 5.48464 32.6613 4.95264 34.0075 4.95264C35.3538 4.95264 36.6454 5.48464 37.6012 6.43275L40.1836 9.0152C40.6568 9.48641 41.0323 10.0464 41.2885 10.6631C41.5447 11.2798 41.6766 11.9411 41.6766 12.6089C41.6766 13.2767 41.5447 13.9379 41.2885 14.5546C41.0323 15.1713 40.6568 15.7313 40.1836 16.2025L24.2067 32.1328C23.3374 32.995 22.1641 33.4811 20.9397 33.4863H12.959L13.1612 25.4433C13.1944 24.2568 13.6784 23.1275 14.5147 22.2853Z" stroke="#0066F5" stroke-width="3.15806" stroke-linecap="round" stroke-linejoin="round"/>
<path d="M28.0024 8.84399L37.7255 18.5671" stroke="#0066F5" stroke-width="3.15806" stroke-linecap="round" stroke-linejoin="round"/>
</g>
<defs>
<clipPath id="clip0_168_649">
<rect width="50" height="50" fill="white"/>
</clipPath>
</defs>
</svg>
