<svg width="38" height="37" viewBox="0 0 38 37" fill="none" xmlns="http://www.w3.org/2000/svg">
<g clip-path="url(#clip0_296_1395)">
<path d="M19 36.0901C28.9533 36.0901 37.022 28.0214 37.022 18.0681C37.022 8.11486 28.9533 0.0461426 19 0.0461426C9.04674 0.0461426 0.978027 8.11486 0.978027 18.0681C0.978027 28.0214 9.04674 36.0901 19 36.0901Z" fill="#9BC0F3" fill-opacity="0.16"/>
<mask id="mask0_296_1395" style="mask-type:luminance" maskUnits="userSpaceOnUse" x="7" y="8" width="25" height="20">
<path d="M31.0637 8.52686H7.33862V27.6894H31.0637V8.52686Z" fill="white"/>
</mask>
<g mask="url(#mask0_296_1395)">
<path d="M30.4091 14.2607L20.0687 11.0532C19.5052 10.8784 18.8973 10.8784 18.3341 11.0532L7.99335 14.2607C7.12071 14.5313 7.12071 15.6964 7.99335 15.967L9.7961 16.5262C9.40054 17.0198 9.15734 17.622 9.13324 18.2815C8.77627 18.4881 8.52495 18.8609 8.52495 19.3059C8.52495 19.7093 8.73549 20.0488 9.03875 20.2659L8.09235 24.5655C8.01003 24.9394 8.29179 25.2942 8.67096 25.2942H10.7511C11.1306 25.2942 11.4124 24.9394 11.3301 24.5655L10.3837 20.2659C10.6869 20.0488 10.8974 19.7093 10.8974 19.3059C10.8974 18.8728 10.6576 18.5106 10.3169 18.3002C10.3451 17.7381 10.6298 17.241 11.0839 16.9259L18.3338 19.1749C18.6696 19.2789 19.314 19.4088 20.0683 19.1749L30.4091 15.9674C31.2822 15.6964 31.2822 14.5317 30.4091 14.2607ZM20.4168 20.3197C19.3592 20.6476 18.458 20.4665 17.9854 20.3197L12.6094 18.6524L12.0837 22.8989C12.0837 24.2219 15.2703 25.2942 19.2012 25.2942C23.1322 25.2942 26.3188 24.2219 26.3188 22.8989L25.7931 18.652L20.4168 20.3197Z" fill="#0066F5"/>
</g>
</g>
<defs>
<clipPath id="clip0_296_1395">
<rect width="36.044" height="36.044" fill="white" transform="translate(0.978027 0.0461426)"/>
</clipPath>
</defs>
</svg>
