<svg width="40" height="39" viewBox="0 0 40 39" fill="none" xmlns="http://www.w3.org/2000/svg">
<g clip-path="url(#clip0_296_1412)">
<path d="M19.9923 38.5635C30.5501 38.5635 39.1089 30.0047 39.1089 19.4469C39.1089 8.88911 30.5501 0.330322 19.9923 0.330322C9.43452 0.330322 0.875732 8.88911 0.875732 19.4469C0.875732 30.0047 9.43452 38.5635 19.9923 38.5635Z" fill="#9BC0F3" fill-opacity="0.16"/>
<path d="M20.3671 11.2942C20.363 11.2942 20.363 11.2942 20.3589 11.2942C20.3589 11.2942 20.3589 11.2942 20.3548 11.2942C20.3507 11.2942 20.3466 11.2942 20.3466 11.2942C15.6442 11.3065 11.8396 15.1192 11.8396 19.8217C11.8396 24.5241 15.6442 28.3369 20.3466 28.3492C20.3507 28.3492 20.3548 28.3492 20.3548 28.3492H20.3589C20.363 28.3492 20.363 28.3492 20.3671 28.3492C25.0777 28.3492 28.8946 24.5323 28.8946 19.8217C28.8946 15.1111 25.0777 11.2942 20.3671 11.2942ZM20.7074 16.3984C21.6134 16.3738 22.4908 16.2549 23.3394 16.0499C23.5936 17.0544 23.7535 18.2145 23.7781 19.4855H20.7074V16.3984ZM20.7074 15.7137V12.0322C21.6257 12.2863 22.5605 13.5122 23.1508 15.394C22.3637 15.5825 21.5478 15.6891 20.7074 15.7137ZM20.0268 12.0239V15.7178C19.1782 15.6933 18.3541 15.5825 17.5629 15.3899C18.1614 13.4957 19.1003 12.2617 20.0268 12.0239ZM20.0268 16.3984V19.4814H16.9356C16.9602 18.2105 17.12 17.0502 17.3743 16.0458C18.227 16.2508 19.1166 16.3738 20.0268 16.3984ZM16.2468 19.4814H12.5324C12.6063 17.7267 13.2622 16.1196 14.3077 14.8487C15.0661 15.2668 15.8737 15.6112 16.7183 15.8655C16.4395 16.9519 16.2755 18.1777 16.2468 19.4814ZM16.2468 20.162C16.2714 21.4616 16.4355 22.6915 16.7142 23.7779C15.8697 24.0363 15.0661 24.3765 14.3035 24.7947C13.2581 23.5238 12.6063 21.9166 12.5284 20.162H16.2468ZM16.9356 20.162H20.0268V23.2409C19.1166 23.2655 18.227 23.3885 17.3743 23.5975C17.12 22.5931 16.9602 21.4329 16.9356 20.162ZM20.0268 23.9255V27.6235C19.1003 27.3817 18.1614 26.1518 17.5629 24.2576C18.3541 24.0608 19.1782 23.9501 20.0268 23.9255ZM20.7074 27.6112V23.9215C21.5478 23.9461 22.3637 24.0567 23.155 24.2453C22.5605 26.1312 21.6298 27.3571 20.7074 27.6112ZM20.7074 23.2409V20.162H23.7781C23.7535 21.4288 23.5936 22.589 23.3394 23.5934C22.4908 23.3885 21.6134 23.2655 20.7074 23.2409ZM24.4628 20.162H28.2017C28.1279 21.9166 27.4719 23.5197 26.4265 24.7947C25.6599 24.3724 24.8481 24.028 23.9953 23.7697C24.2742 22.6833 24.4382 21.4616 24.4628 20.162ZM24.4628 19.4814C24.4382 18.1818 24.2742 16.9559 23.9995 15.8695C24.8522 15.6112 25.664 15.2668 26.4265 14.8487C27.4719 16.1196 28.1279 17.7267 28.2017 19.4855H24.4628V19.4814ZM25.9592 14.3239C25.2786 14.6847 24.5652 14.984 23.815 15.2095C23.4174 13.9262 22.8556 12.8808 22.1956 12.1921C23.6469 12.5405 24.9424 13.2949 25.9592 14.3239ZM18.514 12.2002C17.854 12.8849 17.2964 13.9303 16.9028 15.2054C16.1608 14.9799 15.4515 14.6847 14.7791 14.3239C15.7835 13.299 17.0709 12.5487 18.514 12.2002ZM14.775 25.3153C15.4474 24.9546 16.1608 24.6594 16.8987 24.4339C17.2964 25.713 17.854 26.7544 18.514 27.4431C17.0709 27.0947 15.7835 26.3444 14.775 25.3153ZM22.1956 27.4513C22.8597 26.7626 23.4174 25.7172 23.8191 24.4298C24.5694 24.6553 25.2827 24.9546 25.9632 25.3153C24.9465 26.3485 23.6469 27.1029 22.1956 27.4513Z" fill="#0066F5"/>
</g>
<defs>
<clipPath id="clip0_296_1412">
<rect width="38.2332" height="38.2332" fill="white" transform="translate(0.875732 0.330322)"/>
</clipPath>
</defs>
</svg>
