<svg width="24" height="22" viewBox="0 0 24 22" fill="none" xmlns="http://www.w3.org/2000/svg">
<path d="M22.5 6.5H1.5C0.65625 6.5 0 5.84375 0 5V2C0 1.20312 0.65625 0.5 1.5 0.5H22.5C23.2969 0.5 24 1.20312 24 2V5C24 5.84375 23.2969 6.5 22.5 6.5ZM20.25 2.375C19.5938 2.375 19.125 2.89062 19.125 3.5C19.125 4.15625 19.5938 4.625 20.25 4.625C20.8594 4.625 21.375 4.15625 21.375 3.5C21.375 2.89062 20.8594 2.375 20.25 2.375ZM17.25 2.375C16.5938 2.375 16.125 2.89062 16.125 3.5C16.125 4.15625 16.5938 4.625 17.25 4.625C17.8594 4.625 18.375 4.15625 18.375 3.5C18.375 2.89062 17.8594 2.375 17.25 2.375ZM22.5 14H1.5C0.65625 14 0 13.3438 0 12.5V9.5C0 8.70312 0.65625 8 1.5 8H22.5C23.2969 8 24 8.70312 24 9.5V12.5C24 13.3438 23.2969 14 22.5 14ZM20.25 9.875C19.5938 9.875 19.125 10.3906 19.125 11C19.125 11.6562 19.5938 12.125 20.25 12.125C20.8594 12.125 21.375 11.6562 21.375 11C21.375 10.3906 20.8594 9.875 20.25 9.875ZM17.25 9.875C16.5938 9.875 16.125 10.3906 16.125 11C16.125 11.6562 16.5938 12.125 17.25 12.125C17.8594 12.125 18.375 11.6562 18.375 11C18.375 10.3906 17.8594 9.875 17.25 9.875ZM22.5 21.5H1.5C0.65625 21.5 0 20.8438 0 20V17C0 16.2031 0.65625 15.5 1.5 15.5H22.5C23.2969 15.5 24 16.2031 24 17V20C24 20.8438 23.2969 21.5 22.5 21.5ZM20.25 17.375C19.5938 17.375 19.125 17.8906 19.125 18.5C19.125 19.1562 19.5938 19.625 20.25 19.625C20.8594 19.625 21.375 19.1562 21.375 18.5C21.375 17.8906 20.8594 17.375 20.25 17.375ZM17.25 17.375C16.5938 17.375 16.125 17.8906 16.125 18.5C16.125 19.1562 16.5938 19.625 17.25 19.625C17.8594 19.625 18.375 19.1562 18.375 18.5C18.375 17.8906 17.8594 17.375 17.25 17.375Z" fill="#0464F4"/>
</svg>
