<svg width="28" height="24" viewBox="0 0 28 24" fill="none" xmlns="http://www.w3.org/2000/svg">
<path d="M5.1001 6C3.4126 6 2.1001 4.6875 2.1001 3C2.1001 1.35938 3.4126 0 5.1001 0C6.74072 0 8.1001 1.35938 8.1001 3C8.1001 4.6875 6.74072 6 5.1001 6ZM5.1001 14.2969H5.05322C5.05322 14.8594 5.33447 15.4219 5.70947 15.7969L8.1001 18V22.5C8.1001 23.3438 7.39697 24 6.6001 24H3.6001C2.75635 24 2.1001 23.3438 2.1001 22.5V16.5C1.25635 16.5 0.600098 15.8438 0.600098 15V10.5C0.600098 8.85938 1.9126 7.5 3.6001 7.5H6.6001C7.81885 7.54688 8.94385 8.29688 9.36572 9.42188C9.27197 9.46875 9.17822 9.51562 9.08447 9.5625L5.70947 12.7969C5.33447 13.1719 5.1001 13.6875 5.1001 14.25V14.2969ZM23.1001 6C21.4126 6 20.1001 4.6875 20.1001 3C20.1001 1.35938 21.4126 0 23.1001 0C24.7407 0 26.1001 1.35938 26.1001 3C26.1001 4.6875 24.7407 6 23.1001 6ZM24.6001 7.5C26.2407 7.5 27.6001 8.85938 27.6001 10.5V15C27.6001 15.8438 26.897 16.5 26.1001 16.5V22.5C26.1001 23.3438 25.397 24 24.6001 24H21.6001C20.7563 24 20.1001 23.3438 20.1001 22.5V18L22.4438 15.7969C22.8188 15.375 23.1001 14.8594 23.1001 14.2969C23.1001 13.6875 22.8188 13.1719 22.4438 12.7969L19.0688 9.60938C18.9751 9.51562 18.8813 9.46875 18.7876 9.42188C19.2095 8.29688 20.3345 7.54688 21.6001 7.5H24.6001ZM21.4126 13.875C21.5063 13.9688 21.6001 14.1094 21.6001 14.2969C21.6001 14.4375 21.5063 14.5781 21.4126 14.6719L18.0376 17.8594C17.9438 17.9531 17.8032 18.0469 17.6626 18.0469C17.3345 18.0469 17.1001 17.7656 17.1001 17.4844V15.75H11.1001V17.4844H11.0532C11.0532 17.7656 10.8188 18.0469 10.4907 18.0469C10.3501 18.0469 10.2095 17.9531 10.1157 17.8594L6.74072 14.6719C6.64697 14.5781 6.6001 14.4375 6.6001 14.2969C6.6001 14.1094 6.64697 13.9688 6.74072 13.875L10.1157 10.6875C10.2095 10.5938 10.3501 10.5 10.5376 10.5C10.8188 10.5 11.1001 10.7812 11.1001 11.0625V12.75H17.1001V11.0625C17.1001 10.7812 17.3345 10.5 17.6626 10.5C17.8032 10.5 17.9438 10.5938 18.0376 10.6875L21.4126 13.875Z" fill="#0464F4"/>
</svg>
