<svg width="22" height="22" viewBox="0 0 22 22" fill="none" xmlns="http://www.w3.org/2000/svg">
<path d="M21.6001 15.125V20.375V20.4219C21.6001 21.0312 21.0845 21.5469 20.4751 21.5469V21.5H15.2251C14.1938 21.5 13.6782 20.3281 14.4282 19.5781L16.1157 17.8906L11.1001 12.875L6.0376 17.8906L7.77197 19.5781C8.4751 20.3281 7.95947 21.5 6.9751 21.5H1.7251H1.67822C1.06885 21.5 0.553223 21.0312 0.553223 20.4219C0.553223 20.4219 0.600098 20.4219 0.600098 20.375V15.125C0.600098 14.1406 1.77197 13.625 2.52197 14.3281L4.20947 16.0625L9.2251 11L4.20947 5.98438L2.52197 7.67188C1.77197 8.42188 0.600098 7.90625 0.600098 6.875V1.625C0.600098 1.01562 1.06885 0.5 1.67822 0.5C1.67822 0.5 1.67822 0.5 1.7251 0.5H6.9751C7.95947 0.5 8.4751 1.71875 7.77197 2.42188L6.0376 4.15625L11.1001 9.17188L16.1157 4.15625L14.4282 2.42188C13.6782 1.71875 14.1938 0.5 15.2251 0.5H20.4751C21.0845 0.5 21.6001 1.01562 21.6001 1.625V6.875C21.6001 7.90625 20.3813 8.42188 19.6782 7.67188L17.9438 5.98438L12.9282 11L17.9438 16.0625L19.6782 14.375C20.3813 13.625 21.6001 14.1406 21.6001 15.125Z" fill="#0464F4"/>
</svg>
