<svg width="10" height="8" viewBox="0 0 10 8" fill="none" xmlns="http://www.w3.org/2000/svg">
<path d="M9.16634 1.67745C8.86009 1.81356 8.53023 1.90523 8.1844 1.94689C8.53787 1.73509 8.80801 1.40037 8.93648 1.00106C8.60592 1.19689 8.23995 1.33926 7.85037 1.41564C7.53926 1.08301 7.09412 0.875366 6.60315 0.875366C5.49898 0.875366 4.68787 1.90523 4.93717 2.97467C3.51704 2.90314 2.25662 2.22259 1.41356 1.18856C0.965647 1.95662 1.18162 2.96217 1.94273 3.4712C1.66287 3.46217 1.39967 3.38509 1.16912 3.25731C1.15037 4.04898 1.71842 4.78995 2.54065 4.95523C2.30037 5.02051 2.03648 5.03578 1.76842 4.98439C1.98579 5.66356 2.61842 6.15731 3.36565 6.1712C2.64551 6.73509 1.74065 6.98717 0.833008 6.88023C1.58995 7.36564 2.48787 7.64828 3.45315 7.64828C6.62815 7.64828 8.4212 4.96703 8.31287 2.56217C8.64759 2.32189 8.93717 2.02051 9.16634 1.67745Z" fill="#1D4645"/>
</svg>
