<svg width="24" height="27" viewBox="0 0 24 27" fill="none" xmlns="http://www.w3.org/2000/svg">
<path d="M7.50014 17.3427C7.31014 17.3427 7.12014 17.2664 6.97014 17.1027C6.83066 16.9487 6.75244 16.7409 6.75244 16.5244C6.75244 16.3079 6.83066 16.1001 6.97014 15.9461L10.1701 12.4546C10.2475 12.3679 10.3417 12.3013 10.4458 12.2596C10.5498 12.218 10.6611 12.2023 10.7715 12.2139C10.8819 12.2254 10.9884 12.2638 11.0834 12.3262C11.1783 12.3886 11.2592 12.4735 11.3201 12.5746L12.4101 14.364L15.9601 10.4906C16.2501 10.1741 16.7301 10.1741 17.0201 10.4906C17.3101 10.807 17.3101 11.3307 17.0201 11.6471L12.8201 16.2298C12.7428 16.3164 12.6486 16.383 12.5445 16.4247C12.4405 16.4664 12.3291 16.482 12.2188 16.4705C12.1084 16.459 12.0018 16.4206 11.9069 16.3582C11.8119 16.2957 11.731 16.2108 11.6701 16.1098L10.5801 14.3204L8.03014 17.1027C7.88014 17.2664 7.69014 17.3427 7.50014 17.3427Z" fill="#CCCCCC"/>
<path d="M16.5 14.0683C16.09 14.0683 15.75 13.6973 15.75 13.25V11.8861H14.5C14.09 11.8861 13.75 11.5151 13.75 11.0678C13.75 10.6204 14.09 10.2494 14.5 10.2494H16.5C16.91 10.2494 17.25 10.6204 17.25 11.0678V13.25C17.25 13.6973 16.91 14.0683 16.5 14.0683Z" fill="#CCCCCC"/>
<path d="M15 25.525H9C3.57 25.525 1.25 22.9936 1.25 17.0689V10.5222C1.25 4.59748 3.57 2.0661 9 2.0661H15C20.43 2.0661 22.75 4.59748 22.75 10.5222V17.0689C22.75 22.9936 20.43 25.525 15 25.525ZM9 3.70277C4.39 3.70277 2.75 5.49219 2.75 10.5222V17.0689C2.75 22.0989 4.39 23.8883 9 23.8883H15C19.61 23.8883 21.25 22.0989 21.25 17.0689V10.5222C21.25 5.49219 19.61 3.70277 15 3.70277H9Z" fill="#CCCCCC"/>
</svg>
